M48
;Layer_Color=6321
;FILE_FORMAT=2:4
INCH,TZ
;TYPE=PLATED
T1F00S00C0.0118
T4F00S00C0.0250
T5F00S00C0.0280
T7F00S00C0.0315
T8F00S00C0.0360
T9F00S00C0.0394
T12F00S00C0.0453
T13F00S00C0.0470
T14F00S00C0.0472
T15F00S00C0.0630
T16F00S00C0.1378
%
T01
X41200Y11000
X40750Y13250
X39300
X44750
X47350Y11550
X49500
X50150Y11600
X50100Y11000
X50200Y10400
X50750Y11750
X51500Y12100
Y13900
X50750Y14200
X50000Y14350
X49250Y13250
X52200Y10400
X55000Y10200
X56950Y14850
X56650Y15400
X63750Y21250
Y25850
X58550Y20150
X53500Y21650
X52950Y22850
X55050Y16050
X49150Y15710
X48050Y15700
X40750Y15750
T04
X35000Y8500
X36250
X37500
X38750
X40000
X41250
X42500
X43750
X45000
X46250
X32500Y11250
Y12500
Y13750
Y15000
X47500Y8500
X48750
X50000
X51250
X52500
X53750
X55000
X56250
X57500
X58750
X60000
X61250
Y15000
X62500Y8500
X63750
X65000
X66250
X67500
X68750
X70000
X67250Y25000
Y25850
X66350
Y25000
X65500
Y25850
X61250Y19750
Y18750
X60000Y19750
X56850Y18600
X55000Y19750
X53750
X52500
X51250
X50000
X48750
X47500
Y17500
X50000
X61250Y16250
X46250Y19750
X45000
X43750
X42500
X41250
X39750Y20000
X39500Y21250
X39512Y22539
X39500Y23750
Y25000
Y26250
Y27500
X38480Y28230
X37230
X35980
X34730
X33480
X32500Y27500
Y26250
Y25000
Y23750
Y22500
Y21250
Y20000
Y18750
Y17500
X33750
X35000
X36250
X37500
X38750
X41250
X37500Y19500
X36250Y20000
X32500Y16250
T05
X48550Y24700
Y25450
Y27050
Y27800
X46000Y25500
Y24750
X44000
Y25500
X42250
Y24750
T07
X55116Y26600
X57084
X59616
X61584
T08
X35550Y21829
Y24779
T09
X63583Y35366
Y36350
Y37334
T12
X55900Y22100
X56900
X57900
X59900
X60900
T13
X34850Y12282
Y13266
Y14250
X52182Y17800
X53166
X54150
X68450Y35266
Y36250
Y37234
T14
X64061Y14502
X68100Y17750
T15
X65563Y13002
X67313
X65813Y16002
X69313
T16
X33468Y9819
X59846Y17693
X44492Y28716
X56693Y36350
M30
