G04*
G04 #@! TF.GenerationSoftware,Altium Limited,CircuitMaker,2.3.0 (2.3.0.3)*
G04*
G04 Layer_Color=2752767*
%FSLAX25Y25*%
%MOIN*%
G70*
G04*
G04 #@! TF.SameCoordinates,62C2B06D-8976-45AB-99A1-AE5862A21714*
G04*
G04*
G04 #@! TF.FilePolarity,Positive*
G04*
G01*
G75*
%ADD124C,0.00200*%
%ADD125C,0.00267*%
%ADD126C,0.00133*%
D124*
X540700Y177200D02*
Y178800D01*
X542300D01*
Y177200D01*
X540700D01*
X521015D02*
Y178800D01*
X522615D01*
Y177200D01*
X521015D01*
X530858D02*
Y178800D01*
X532457D01*
Y177200D01*
X530858D01*
X347700Y141700D02*
Y143300D01*
X349300D01*
Y141700D01*
X347700D01*
Y122015D02*
Y123615D01*
X349300D01*
Y122015D01*
X347700D01*
Y131858D02*
Y133458D01*
X349300D01*
Y131858D01*
X347700D01*
X683700Y371543D02*
Y373143D01*
X685300D01*
Y371543D01*
X683700D01*
Y351857D02*
Y353457D01*
X685300D01*
Y351857D01*
X683700D01*
Y361700D02*
Y363300D01*
X685300D01*
Y361700D01*
X683700D01*
X673126Y129220D02*
X672326Y130820D01*
X673926D01*
X673126Y129220D01*
X693126Y159220D02*
X692326Y160820D01*
X693926D01*
X693126Y159220D01*
X658126D02*
X657326Y160820D01*
X658926D01*
X658126Y159220D01*
X655626Y129220D02*
X654826Y130820D01*
X656426D01*
X655626Y129220D01*
X640606Y144220D02*
X641006Y144620D01*
X641406D01*
X641006Y145020D01*
X641406Y145420D01*
X641006D01*
X640606Y145820D01*
X640206Y145420D01*
X639806D01*
X640206Y145020D01*
X639806Y144620D01*
X640206D01*
X640606Y144220D01*
X681000Y176700D02*
X681400Y177100D01*
X681800D01*
X681400Y177500D01*
X681800Y177900D01*
X681400D01*
X681000Y178300D01*
X680600Y177900D01*
X680200D01*
X680600Y177500D01*
X680200Y177100D01*
X680600D01*
X681000Y176700D01*
X354700Y217491D02*
X355100Y218291D01*
X354700Y219091D01*
X355500Y218691D01*
X356300Y219091D01*
X355900Y218291D01*
X356300Y217491D01*
X355500Y217891D01*
X354700Y217491D01*
Y246991D02*
X355100Y247791D01*
X354700Y248591D01*
X355500Y248191D01*
X356300Y248591D01*
X355900Y247791D01*
X356300Y246991D01*
X355500Y247391D01*
X354700Y246991D01*
X701269Y246692D02*
Y246292D01*
X702069D01*
Y246692D01*
X702469D01*
Y247492D01*
X702069D01*
Y247892D01*
X701269D01*
Y247492D01*
X700869D01*
Y246692D01*
X701269D01*
Y212692D02*
Y212292D01*
X702069D01*
Y212692D01*
X702469D01*
Y213492D01*
X702069D01*
Y213892D01*
X701269D01*
Y213492D01*
X700869D01*
Y212692D01*
X701269D01*
X686809Y246700D02*
Y246300D01*
X687609D01*
Y246700D01*
X688009D01*
Y247500D01*
X687609D01*
Y247900D01*
X686809D01*
Y247500D01*
X686409D01*
Y246700D01*
X686809D01*
Y212684D02*
Y212284D01*
X687609D01*
Y212684D01*
X688009D01*
Y213484D01*
X687609D01*
Y213884D01*
X686809D01*
Y213484D01*
X686409D01*
Y212684D01*
X686809D01*
X550357Y265200D02*
X550758D01*
X551158Y265600D01*
X551557Y265200D01*
X551958D01*
Y265600D01*
X551557Y266000D01*
X551958Y266400D01*
Y266800D01*
X551557D01*
X551158Y266400D01*
X550758Y266800D01*
X550357D01*
Y266400D01*
X550758Y266000D01*
X550357Y265600D01*
Y265200D01*
X570043D02*
X570442D01*
X570843Y265600D01*
X571243Y265200D01*
X571642D01*
Y265600D01*
X571243Y266000D01*
X571642Y266400D01*
Y266800D01*
X571243D01*
X570843Y266400D01*
X570442Y266800D01*
X570043D01*
Y266400D01*
X570442Y266000D01*
X570043Y265600D01*
Y265200D01*
X661200Y281500D02*
X662000Y282300D01*
X662800Y281500D01*
X662000Y280700D01*
X661200Y281500D01*
X673000Y299600D02*
Y301200D01*
X674600D01*
Y299600D01*
X673000D01*
X673400Y300000D02*
Y300800D01*
X674200D01*
Y300000D01*
X673400D01*
X606300Y381598D02*
X605500Y383198D01*
X607100D01*
X606300Y381598D01*
Y381998D02*
X605900Y382798D01*
X606700D01*
X606300Y381998D01*
Y343802D02*
X605500Y345402D01*
X607100D01*
X606300Y343802D01*
Y344202D02*
X605900Y345002D01*
X606700D01*
X606300Y344202D01*
X635828Y372543D02*
X636228Y372942D01*
X636628D01*
X636228Y373342D01*
X636628Y373743D01*
X636228D01*
X635828Y374143D01*
X635428Y373743D01*
X635028D01*
X635428Y373342D01*
X635028Y372942D01*
X635428D01*
X635828Y372543D01*
Y372942D02*
X636028Y373143D01*
X636228D01*
X636028Y373342D01*
X636228Y373542D01*
X636028D01*
X635828Y373743D01*
X635628Y373542D01*
X635428D01*
X635628Y373342D01*
X635428Y373143D01*
X635628D01*
X635828Y372942D01*
Y362700D02*
X636228Y363100D01*
X636628D01*
X636228Y363500D01*
X636628Y363900D01*
X636228D01*
X635828Y364300D01*
X635428Y363900D01*
X635028D01*
X635428Y363500D01*
X635028Y363100D01*
X635428D01*
X635828Y362700D01*
Y363100D02*
X636028Y363300D01*
X636228D01*
X636028Y363500D01*
X636228Y363700D01*
X636028D01*
X635828Y363900D01*
X635628Y363700D01*
X635428D01*
X635628Y363500D01*
X635428Y363300D01*
X635628D01*
X635828Y363100D01*
Y352857D02*
X636228Y353257D01*
X636628D01*
X636228Y353658D01*
X636628Y354058D01*
X636228D01*
X635828Y354457D01*
X635428Y354058D01*
X635028D01*
X635428Y353658D01*
X635028Y353257D01*
X635428D01*
X635828Y352857D01*
Y353257D02*
X636028Y353457D01*
X636228D01*
X636028Y353658D01*
X636228Y353857D01*
X636028D01*
X635828Y354058D01*
X635628Y353857D01*
X635428D01*
X635628Y353658D01*
X635428Y353457D01*
X635628D01*
X635828Y353257D01*
X615042Y265200D02*
X615443D01*
X615842Y265600D01*
X616243Y265200D01*
X616643D01*
Y265600D01*
X616243Y266000D01*
X616643Y266400D01*
Y266800D01*
X616243D01*
X615842Y266400D01*
X615443Y266800D01*
X615042D01*
Y266400D01*
X615443Y266000D01*
X615042Y265600D01*
Y265200D01*
X595358D02*
X595757D01*
X596158Y265600D01*
X596558Y265200D01*
X596957D01*
Y265600D01*
X596558Y266000D01*
X596957Y266400D01*
Y266800D01*
X596558D01*
X596158Y266400D01*
X595757Y266800D01*
X595358D01*
Y266400D01*
X595757Y266000D01*
X595358Y265600D01*
Y265200D01*
X506700Y141200D02*
X507100Y142000D01*
X506700Y142800D01*
X507500Y142400D01*
X508300Y142800D01*
X507900Y142000D01*
X508300Y141200D01*
X507500Y141600D01*
X506700Y141200D01*
X507100Y141600D02*
X507300Y142000D01*
X507100Y142400D01*
X507500Y142200D01*
X507900Y142400D01*
X507700Y142000D01*
X507900Y141600D01*
X507500Y141800D01*
X507100Y141600D01*
X514200Y138200D02*
X514600Y139000D01*
X514200Y139800D01*
X515000Y139400D01*
X515800Y139800D01*
X515400Y139000D01*
X515800Y138200D01*
X515000Y138600D01*
X514200Y138200D01*
X514600Y138600D02*
X514800Y139000D01*
X514600Y139400D01*
X515000Y139200D01*
X515400Y139400D01*
X515200Y139000D01*
X515400Y138600D01*
X515000Y138800D01*
X514600Y138600D01*
X499200Y142700D02*
X499600Y143500D01*
X499200Y144300D01*
X500000Y143900D01*
X500800Y144300D01*
X500400Y143500D01*
X500800Y142700D01*
X500000Y143100D01*
X499200Y142700D01*
X499600Y143100D02*
X499800Y143500D01*
X499600Y143900D01*
X500000Y143700D01*
X500400Y143900D01*
X500200Y143500D01*
X500400Y143100D01*
X500000Y143300D01*
X499600Y143100D01*
X598065Y176525D02*
Y176125D01*
X598865D01*
Y176525D01*
X599265D01*
Y177325D01*
X598865D01*
Y177725D01*
X598065D01*
Y177325D01*
X597665D01*
Y176525D01*
X598065D01*
X598265Y176725D02*
Y176525D01*
X598665D01*
Y176725D01*
X598865D01*
Y177125D01*
X598665D01*
Y177325D01*
X598265D01*
Y177125D01*
X598065D01*
Y176725D01*
X598265D01*
X566529Y363100D02*
Y362700D01*
X567329D01*
Y363100D01*
X567729D01*
Y363900D01*
X567329D01*
Y364300D01*
X566529D01*
Y363900D01*
X566129D01*
Y363100D01*
X566529D01*
X566729Y363300D02*
Y363100D01*
X567129D01*
Y363300D01*
X567329D01*
Y363700D01*
X567129D01*
Y363900D01*
X566729D01*
Y363700D01*
X566529D01*
Y363300D01*
X566729D01*
X324200Y274200D02*
X324600D01*
X325000Y274600D01*
X325400Y274200D01*
X325800D01*
Y274600D01*
X325400Y275000D01*
X325800Y275400D01*
Y275800D01*
X325400D01*
X325000Y275400D01*
X324600Y275800D01*
X324200D01*
Y275400D01*
X324600Y275000D01*
X324200Y274600D01*
Y274200D01*
X324600Y274600D02*
X324800D01*
X325000Y274800D01*
X325200Y274600D01*
X325400D01*
Y274800D01*
X325200Y275000D01*
X325400Y275200D01*
Y275400D01*
X325200D01*
X325000Y275200D01*
X324800Y275400D01*
X324600D01*
Y275200D01*
X324800Y275000D01*
X324600Y274800D01*
Y274600D01*
X394200Y274200D02*
X394600D01*
X395000Y274600D01*
X395400Y274200D01*
X395800D01*
Y274600D01*
X395400Y275000D01*
X395800Y275400D01*
Y275800D01*
X395400D01*
X395000Y275400D01*
X394600Y275800D01*
X394200D01*
Y275400D01*
X394600Y275000D01*
X394200Y274600D01*
Y274200D01*
X394600Y274600D02*
X394800D01*
X395000Y274800D01*
X395200Y274600D01*
X395400D01*
Y274800D01*
X395200Y275000D01*
X395400Y275200D01*
Y275400D01*
X395200D01*
X395000Y275200D01*
X394800Y275400D01*
X394600D01*
Y275200D01*
X394800Y275000D01*
X394600Y274800D01*
Y274600D01*
X334285Y97785D02*
Y97385D01*
X335085D01*
Y97785D01*
X335485D01*
Y98585D01*
X335085D01*
Y98985D01*
X334285D01*
Y98585D01*
X333885D01*
Y97785D01*
X334285D01*
X334485Y97985D02*
Y97785D01*
X334885D01*
Y97985D01*
X335085D01*
Y98385D01*
X334885D01*
Y98585D01*
X334485D01*
Y98385D01*
X334285D01*
Y97985D01*
X334485D01*
X444521Y286761D02*
Y286361D01*
X445321D01*
Y286761D01*
X445721D01*
Y287561D01*
X445321D01*
Y287961D01*
X444521D01*
Y287561D01*
X444121D01*
Y286761D01*
X444521D01*
X444721Y286961D02*
Y286761D01*
X445121D01*
Y286961D01*
X445321D01*
Y287361D01*
X445121D01*
Y287561D01*
X444721D01*
Y287361D01*
X444521D01*
Y286961D01*
X444721D01*
X565700Y153200D02*
X566100Y154000D01*
X565700Y154800D01*
X566500Y154400D01*
X567300Y154800D01*
X566900Y154000D01*
X567300Y153200D01*
X566500Y153600D01*
X565700Y153200D01*
X566100Y153600D02*
X566300Y154000D01*
X566100Y154400D01*
X566500Y154200D01*
X566900Y154400D01*
X566700Y154000D01*
X566900Y153600D01*
X566500Y153800D01*
X566100Y153600D01*
X528700Y227700D02*
X529100Y228500D01*
X528700Y229300D01*
X529500Y228900D01*
X530300Y229300D01*
X529900Y228500D01*
X530300Y227700D01*
X529500Y228100D01*
X528700Y227700D01*
X529100Y228100D02*
X529300Y228500D01*
X529100Y228900D01*
X529500Y228700D01*
X529900Y228900D01*
X529700Y228500D01*
X529900Y228100D01*
X529500Y228300D01*
X529100Y228100D01*
X485500Y270500D02*
Y271833D01*
X486166Y272499D01*
X486833Y271833D01*
Y270500D01*
Y271500D01*
X485500D01*
X500700Y115200D02*
X501100Y116000D01*
X500700Y116800D01*
X501500Y116400D01*
X502300Y116800D01*
X501900Y116000D01*
X502300Y115200D01*
X501500Y115600D01*
X500700Y115200D01*
X501100Y115600D02*
X501300Y116000D01*
X501100Y116400D01*
X501500Y116200D01*
X501900Y116400D01*
X501700Y116000D01*
X501900Y115600D01*
X501500Y115800D01*
X501100Y115600D01*
X506700Y116700D02*
X507100Y117500D01*
X506700Y118300D01*
X507500Y117900D01*
X508300Y118300D01*
X507900Y117500D01*
X508300Y116700D01*
X507500Y117100D01*
X506700Y116700D01*
X507100Y117100D02*
X507300Y117500D01*
X507100Y117900D01*
X507500Y117700D01*
X507900Y117900D01*
X507700Y117500D01*
X507900Y117100D01*
X507500Y117300D01*
X507100Y117100D01*
X514200Y120200D02*
X514600Y121000D01*
X514200Y121800D01*
X515000Y121400D01*
X515800Y121800D01*
X515400Y121000D01*
X515800Y120200D01*
X515000Y120600D01*
X514200Y120200D01*
X514600Y120600D02*
X514800Y121000D01*
X514600Y121400D01*
X515000Y121200D01*
X515400Y121400D01*
X515200Y121000D01*
X515400Y120600D01*
X515000Y120800D01*
X514600Y120600D01*
X324200Y261700D02*
X324600D01*
X325000Y262100D01*
X325400Y261700D01*
X325800D01*
Y262100D01*
X325400Y262500D01*
X325800Y262900D01*
Y263300D01*
X325400D01*
X325000Y262900D01*
X324600Y263300D01*
X324200D01*
Y262900D01*
X324600Y262500D01*
X324200Y262100D01*
Y261700D01*
X324600Y262100D02*
X324800D01*
X325000Y262300D01*
X325200Y262100D01*
X325400D01*
Y262300D01*
X325200Y262500D01*
X325400Y262700D01*
Y262900D01*
X325200D01*
X325000Y262700D01*
X324800Y262900D01*
X324600D01*
Y262700D01*
X324800Y262500D01*
X324600Y262300D01*
Y262100D01*
X324200Y249200D02*
X324600D01*
X325000Y249600D01*
X325400Y249200D01*
X325800D01*
Y249600D01*
X325400Y250000D01*
X325800Y250400D01*
Y250800D01*
X325400D01*
X325000Y250400D01*
X324600Y250800D01*
X324200D01*
Y250400D01*
X324600Y250000D01*
X324200Y249600D01*
Y249200D01*
X324600Y249600D02*
X324800D01*
X325000Y249800D01*
X325200Y249600D01*
X325400D01*
Y249800D01*
X325200Y250000D01*
X325400Y250200D01*
Y250400D01*
X325200D01*
X325000Y250200D01*
X324800Y250400D01*
X324600D01*
Y250200D01*
X324800Y250000D01*
X324600Y249800D01*
Y249600D01*
X324200Y236700D02*
X324600D01*
X325000Y237100D01*
X325400Y236700D01*
X325800D01*
Y237100D01*
X325400Y237500D01*
X325800Y237900D01*
Y238300D01*
X325400D01*
X325000Y237900D01*
X324600Y238300D01*
X324200D01*
Y237900D01*
X324600Y237500D01*
X324200Y237100D01*
Y236700D01*
X324600Y237100D02*
X324800D01*
X325000Y237300D01*
X325200Y237100D01*
X325400D01*
Y237300D01*
X325200Y237500D01*
X325400Y237700D01*
Y237900D01*
X325200D01*
X325000Y237700D01*
X324800Y237900D01*
X324600D01*
Y237700D01*
X324800Y237500D01*
X324600Y237300D01*
Y237100D01*
X324200Y224200D02*
X324600D01*
X325000Y224600D01*
X325400Y224200D01*
X325800D01*
Y224600D01*
X325400Y225000D01*
X325800Y225400D01*
Y225800D01*
X325400D01*
X325000Y225400D01*
X324600Y225800D01*
X324200D01*
Y225400D01*
X324600Y225000D01*
X324200Y224600D01*
Y224200D01*
X324600Y224600D02*
X324800D01*
X325000Y224800D01*
X325200Y224600D01*
X325400D01*
Y224800D01*
X325200Y225000D01*
X325400Y225200D01*
Y225400D01*
X325200D01*
X325000Y225200D01*
X324800Y225400D01*
X324600D01*
Y225200D01*
X324800Y225000D01*
X324600Y224800D01*
Y224600D01*
X324200Y211700D02*
X324600D01*
X325000Y212100D01*
X325400Y211700D01*
X325800D01*
Y212100D01*
X325400Y212500D01*
X325800Y212900D01*
Y213300D01*
X325400D01*
X325000Y212900D01*
X324600Y213300D01*
X324200D01*
Y212900D01*
X324600Y212500D01*
X324200Y212100D01*
Y211700D01*
X324600Y212100D02*
X324800D01*
X325000Y212300D01*
X325200Y212100D01*
X325400D01*
Y212300D01*
X325200Y212500D01*
X325400Y212700D01*
Y212900D01*
X325200D01*
X325000Y212700D01*
X324800Y212900D01*
X324600D01*
Y212700D01*
X324800Y212500D01*
X324600Y212300D01*
Y212100D01*
X324200Y199200D02*
X324600D01*
X325000Y199600D01*
X325400Y199200D01*
X325800D01*
Y199600D01*
X325400Y200000D01*
X325800Y200400D01*
Y200800D01*
X325400D01*
X325000Y200400D01*
X324600Y200800D01*
X324200D01*
Y200400D01*
X324600Y200000D01*
X324200Y199600D01*
Y199200D01*
X324600Y199600D02*
X324800D01*
X325000Y199800D01*
X325200Y199600D01*
X325400D01*
Y199800D01*
X325200Y200000D01*
X325400Y200200D01*
Y200400D01*
X325200D01*
X325000Y200200D01*
X324800Y200400D01*
X324600D01*
Y200200D01*
X324800Y200000D01*
X324600Y199800D01*
Y199600D01*
X485500Y278000D02*
Y279333D01*
X486166Y279999D01*
X486833Y279333D01*
Y278000D01*
Y279000D01*
X485500D01*
X460000Y255000D02*
Y256333D01*
X460666Y256999D01*
X461333Y256333D01*
Y255000D01*
Y256000D01*
X460000D01*
Y247500D02*
Y248833D01*
X460666Y249499D01*
X461333Y248833D01*
Y247500D01*
Y248500D01*
X460000D01*
X485500Y247000D02*
Y248333D01*
X486166Y248999D01*
X486833Y248333D01*
Y247000D01*
Y248000D01*
X485500D01*
Y254500D02*
Y255833D01*
X486166Y256499D01*
X486833Y255833D01*
Y254500D01*
Y255500D01*
X485500D01*
X440000Y255000D02*
Y256333D01*
X440666Y256999D01*
X441333Y256333D01*
Y255000D01*
Y256000D01*
X440000D01*
Y247500D02*
Y248833D01*
X440666Y249499D01*
X441333Y248833D01*
Y247500D01*
Y248500D01*
X440000D01*
X422500Y247500D02*
Y248833D01*
X423166Y249499D01*
X423833Y248833D01*
Y247500D01*
Y248500D01*
X422500D01*
Y255000D02*
Y256333D01*
X423166Y256999D01*
X423833Y256333D01*
Y255000D01*
Y256000D01*
X422500D01*
X611700Y149200D02*
X612100D01*
X612500Y149600D01*
X612900Y149200D01*
X613300D01*
Y149600D01*
X612900Y150000D01*
X613300Y150400D01*
Y150800D01*
X612900D01*
X612500Y150400D01*
X612100Y150800D01*
X611700D01*
Y150400D01*
X612100Y150000D01*
X611700Y149600D01*
Y149200D01*
X612100Y149600D02*
X612300D01*
X612500Y149800D01*
X612700Y149600D01*
X612900D01*
Y149800D01*
X612700Y150000D01*
X612900Y150200D01*
Y150400D01*
X612700D01*
X612500Y150200D01*
X612300Y150400D01*
X612100D01*
Y150200D01*
X612300Y150000D01*
X612100Y149800D01*
Y149600D01*
X611700Y161700D02*
X612100D01*
X612500Y162100D01*
X612900Y161700D01*
X613300D01*
Y162100D01*
X612900Y162500D01*
X613300Y162900D01*
Y163300D01*
X612900D01*
X612500Y162900D01*
X612100Y163300D01*
X611700D01*
Y162900D01*
X612100Y162500D01*
X611700Y162100D01*
Y161700D01*
X612100Y162100D02*
X612300D01*
X612500Y162300D01*
X612700Y162100D01*
X612900D01*
Y162300D01*
X612700Y162500D01*
X612900Y162700D01*
Y162900D01*
X612700D01*
X612500Y162700D01*
X612300Y162900D01*
X612100D01*
Y162700D01*
X612300Y162500D01*
X612100Y162300D01*
Y162100D01*
X611700Y186700D02*
X612100D01*
X612500Y187100D01*
X612900Y186700D01*
X613300D01*
Y187100D01*
X612900Y187500D01*
X613300Y187900D01*
Y188300D01*
X612900D01*
X612500Y187900D01*
X612100Y188300D01*
X611700D01*
Y187900D01*
X612100Y187500D01*
X611700Y187100D01*
Y186700D01*
X612100Y187100D02*
X612300D01*
X612500Y187300D01*
X612700Y187100D01*
X612900D01*
Y187300D01*
X612700Y187500D01*
X612900Y187700D01*
Y187900D01*
X612700D01*
X612500Y187700D01*
X612300Y187900D01*
X612100D01*
Y187700D01*
X612300Y187500D01*
X612100Y187300D01*
Y187100D01*
X336700Y174200D02*
X337100D01*
X337500Y174600D01*
X337900Y174200D01*
X338300D01*
Y174600D01*
X337900Y175000D01*
X338300Y175400D01*
Y175800D01*
X337900D01*
X337500Y175400D01*
X337100Y175800D01*
X336700D01*
Y175400D01*
X337100Y175000D01*
X336700Y174600D01*
Y174200D01*
X337100Y174600D02*
X337300D01*
X337500Y174800D01*
X337700Y174600D01*
X337900D01*
Y174800D01*
X337700Y175000D01*
X337900Y175200D01*
Y175400D01*
X337700D01*
X337500Y175200D01*
X337300Y175400D01*
X337100D01*
Y175200D01*
X337300Y175000D01*
X337100Y174800D01*
Y174600D01*
X349200Y174200D02*
X349600D01*
X350000Y174600D01*
X350400Y174200D01*
X350800D01*
Y174600D01*
X350400Y175000D01*
X350800Y175400D01*
Y175800D01*
X350400D01*
X350000Y175400D01*
X349600Y175800D01*
X349200D01*
Y175400D01*
X349600Y175000D01*
X349200Y174600D01*
Y174200D01*
X349600Y174600D02*
X349800D01*
X350000Y174800D01*
X350200Y174600D01*
X350400D01*
Y174800D01*
X350200Y175000D01*
X350400Y175200D01*
Y175400D01*
X350200D01*
X350000Y175200D01*
X349800Y175400D01*
X349600D01*
Y175200D01*
X349800Y175000D01*
X349600Y174800D01*
Y174600D01*
X361700Y174200D02*
X362100D01*
X362500Y174600D01*
X362900Y174200D01*
X363300D01*
Y174600D01*
X362900Y175000D01*
X363300Y175400D01*
Y175800D01*
X362900D01*
X362500Y175400D01*
X362100Y175800D01*
X361700D01*
Y175400D01*
X362100Y175000D01*
X361700Y174600D01*
Y174200D01*
X362100Y174600D02*
X362300D01*
X362500Y174800D01*
X362700Y174600D01*
X362900D01*
Y174800D01*
X362700Y175000D01*
X362900Y175200D01*
Y175400D01*
X362700D01*
X362500Y175200D01*
X362300Y175400D01*
X362100D01*
Y175200D01*
X362300Y175000D01*
X362100Y174800D01*
Y174600D01*
X386700Y174200D02*
X387100D01*
X387500Y174600D01*
X387900Y174200D01*
X388300D01*
Y174600D01*
X387900Y175000D01*
X388300Y175400D01*
Y175800D01*
X387900D01*
X387500Y175400D01*
X387100Y175800D01*
X386700D01*
Y175400D01*
X387100Y175000D01*
X386700Y174600D01*
Y174200D01*
X387100Y174600D02*
X387300D01*
X387500Y174800D01*
X387700Y174600D01*
X387900D01*
Y174800D01*
X387700Y175000D01*
X387900Y175200D01*
Y175400D01*
X387700D01*
X387500Y175200D01*
X387300Y175400D01*
X387100D01*
Y175200D01*
X387300Y175000D01*
X387100Y174800D01*
Y174600D01*
X474200Y174200D02*
X474600D01*
X475000Y174600D01*
X475400Y174200D01*
X475800D01*
Y174600D01*
X475400Y175000D01*
X475800Y175400D01*
Y175800D01*
X475400D01*
X475000Y175400D01*
X474600Y175800D01*
X474200D01*
Y175400D01*
X474600Y175000D01*
X474200Y174600D01*
Y174200D01*
X474600Y174600D02*
X474800D01*
X475000Y174800D01*
X475200Y174600D01*
X475400D01*
Y174800D01*
X475200Y175000D01*
X475400Y175200D01*
Y175400D01*
X475200D01*
X475000Y175200D01*
X474800Y175400D01*
X474600D01*
Y175200D01*
X474800Y175000D01*
X474600Y174800D01*
Y174600D01*
X499200Y174200D02*
X499600D01*
X500000Y174600D01*
X500400Y174200D01*
X500800D01*
Y174600D01*
X500400Y175000D01*
X500800Y175400D01*
Y175800D01*
X500400D01*
X500000Y175400D01*
X499600Y175800D01*
X499200D01*
Y175400D01*
X499600Y175000D01*
X499200Y174600D01*
Y174200D01*
X499600Y174600D02*
X499800D01*
X500000Y174800D01*
X500200Y174600D01*
X500400D01*
Y174800D01*
X500200Y175000D01*
X500400Y175200D01*
Y175400D01*
X500200D01*
X500000Y175200D01*
X499800Y175400D01*
X499600D01*
Y175200D01*
X499800Y175000D01*
X499600Y174800D01*
Y174600D01*
X411700Y174200D02*
X412100D01*
X412500Y174600D01*
X412900Y174200D01*
X413300D01*
Y174600D01*
X412900Y175000D01*
X413300Y175400D01*
Y175800D01*
X412900D01*
X412500Y175400D01*
X412100Y175800D01*
X411700D01*
Y175400D01*
X412100Y175000D01*
X411700Y174600D01*
Y174200D01*
X412100Y174600D02*
X412300D01*
X412500Y174800D01*
X412700Y174600D01*
X412900D01*
Y174800D01*
X412700Y175000D01*
X412900Y175200D01*
Y175400D01*
X412700D01*
X412500Y175200D01*
X412300Y175400D01*
X412100D01*
Y175200D01*
X412300Y175000D01*
X412100Y174800D01*
Y174600D01*
X374200Y174200D02*
X374600D01*
X375000Y174600D01*
X375400Y174200D01*
X375800D01*
Y174600D01*
X375400Y175000D01*
X375800Y175400D01*
Y175800D01*
X375400D01*
X375000Y175400D01*
X374600Y175800D01*
X374200D01*
Y175400D01*
X374600Y175000D01*
X374200Y174600D01*
Y174200D01*
X374600Y174600D02*
X374800D01*
X375000Y174800D01*
X375200Y174600D01*
X375400D01*
Y174800D01*
X375200Y175000D01*
X375400Y175200D01*
Y175400D01*
X375200D01*
X375000Y175200D01*
X374800Y175400D01*
X374600D01*
Y175200D01*
X374800Y175000D01*
X374600Y174800D01*
Y174600D01*
X374200Y194200D02*
X374600D01*
X375000Y194600D01*
X375400Y194200D01*
X375800D01*
Y194600D01*
X375400Y195000D01*
X375800Y195400D01*
Y195800D01*
X375400D01*
X375000Y195400D01*
X374600Y195800D01*
X374200D01*
Y195400D01*
X374600Y195000D01*
X374200Y194600D01*
Y194200D01*
X374600Y194600D02*
X374800D01*
X375000Y194800D01*
X375200Y194600D01*
X375400D01*
Y194800D01*
X375200Y195000D01*
X375400Y195200D01*
Y195400D01*
X375200D01*
X375000Y195200D01*
X374800Y195400D01*
X374600D01*
Y195200D01*
X374800Y195000D01*
X374600Y194800D01*
Y194600D01*
X361700Y199200D02*
X362100D01*
X362500Y199600D01*
X362900Y199200D01*
X363300D01*
Y199600D01*
X362900Y200000D01*
X363300Y200400D01*
Y200800D01*
X362900D01*
X362500Y200400D01*
X362100Y200800D01*
X361700D01*
Y200400D01*
X362100Y200000D01*
X361700Y199600D01*
Y199200D01*
X362100Y199600D02*
X362300D01*
X362500Y199800D01*
X362700Y199600D01*
X362900D01*
Y199800D01*
X362700Y200000D01*
X362900Y200200D01*
Y200400D01*
X362700D01*
X362500Y200200D01*
X362300Y200400D01*
X362100D01*
Y200200D01*
X362300Y200000D01*
X362100Y199800D01*
Y199600D01*
X406700Y131700D02*
X407100Y132500D01*
X406700Y133300D01*
X407500Y132900D01*
X408300Y133300D01*
X407900Y132500D01*
X408300Y131700D01*
X407500Y132100D01*
X406700Y131700D01*
X407100Y132100D02*
X407300Y132500D01*
X407100Y132900D01*
X407500Y132700D01*
X407900Y132900D01*
X407700Y132500D01*
X407900Y132100D01*
X407500Y132300D01*
X407100Y132100D01*
X491700Y131700D02*
X492100Y132500D01*
X491700Y133300D01*
X492500Y132900D01*
X493300Y133300D01*
X492900Y132500D01*
X493300Y131700D01*
X492500Y132100D01*
X491700Y131700D01*
X492100Y132100D02*
X492300Y132500D01*
X492100Y132900D01*
X492500Y132700D01*
X492900Y132900D01*
X492700Y132500D01*
X492900Y132100D01*
X492500Y132300D01*
X492100Y132100D01*
X446700Y131700D02*
X447100Y132500D01*
X446700Y133300D01*
X447500Y132900D01*
X448300Y133300D01*
X447900Y132500D01*
X448300Y131700D01*
X447500Y132100D01*
X446700Y131700D01*
X447100Y132100D02*
X447300Y132500D01*
X447100Y132900D01*
X447500Y132700D01*
X447900Y132900D01*
X447700Y132500D01*
X447900Y132100D01*
X447500Y132300D01*
X447100Y132100D01*
X324200Y111700D02*
X324600D01*
X325000Y112100D01*
X325400Y111700D01*
X325800D01*
Y112100D01*
X325400Y112500D01*
X325800Y112900D01*
Y113300D01*
X325400D01*
X325000Y112900D01*
X324600Y113300D01*
X324200D01*
Y112900D01*
X324600Y112500D01*
X324200Y112100D01*
Y111700D01*
X324600Y112100D02*
X324800D01*
X325000Y112300D01*
X325200Y112100D01*
X325400D01*
Y112300D01*
X325200Y112500D01*
X325400Y112700D01*
Y112900D01*
X325200D01*
X325000Y112700D01*
X324800Y112900D01*
X324600D01*
Y112700D01*
X324800Y112500D01*
X324600Y112300D01*
Y112100D01*
X324200Y124200D02*
X324600D01*
X325000Y124600D01*
X325400Y124200D01*
X325800D01*
Y124600D01*
X325400Y125000D01*
X325800Y125400D01*
Y125800D01*
X325400D01*
X325000Y125400D01*
X324600Y125800D01*
X324200D01*
Y125400D01*
X324600Y125000D01*
X324200Y124600D01*
Y124200D01*
X324600Y124600D02*
X324800D01*
X325000Y124800D01*
X325200Y124600D01*
X325400D01*
Y124800D01*
X325200Y125000D01*
X325400Y125200D01*
Y125400D01*
X325200D01*
X325000Y125200D01*
X324800Y125400D01*
X324600D01*
Y125200D01*
X324800Y125000D01*
X324600Y124800D01*
Y124600D01*
X324200Y136700D02*
X324600D01*
X325000Y137100D01*
X325400Y136700D01*
X325800D01*
Y137100D01*
X325400Y137500D01*
X325800Y137900D01*
Y138300D01*
X325400D01*
X325000Y137900D01*
X324600Y138300D01*
X324200D01*
Y137900D01*
X324600Y137500D01*
X324200Y137100D01*
Y136700D01*
X324600Y137100D02*
X324800D01*
X325000Y137300D01*
X325200Y137100D01*
X325400D01*
Y137300D01*
X325200Y137500D01*
X325400Y137700D01*
Y137900D01*
X325200D01*
X325000Y137700D01*
X324800Y137900D01*
X324600D01*
Y137700D01*
X324800Y137500D01*
X324600Y137300D01*
Y137100D01*
X324200Y149200D02*
X324600D01*
X325000Y149600D01*
X325400Y149200D01*
X325800D01*
Y149600D01*
X325400Y150000D01*
X325800Y150400D01*
Y150800D01*
X325400D01*
X325000Y150400D01*
X324600Y150800D01*
X324200D01*
Y150400D01*
X324600Y150000D01*
X324200Y149600D01*
Y149200D01*
X324600Y149600D02*
X324800D01*
X325000Y149800D01*
X325200Y149600D01*
X325400D01*
Y149800D01*
X325200Y150000D01*
X325400Y150200D01*
Y150400D01*
X325200D01*
X325000Y150200D01*
X324800Y150400D01*
X324600D01*
Y150200D01*
X324800Y150000D01*
X324600Y149800D01*
Y149600D01*
X324200Y161700D02*
X324600D01*
X325000Y162100D01*
X325400Y161700D01*
X325800D01*
Y162100D01*
X325400Y162500D01*
X325800Y162900D01*
Y163300D01*
X325400D01*
X325000Y162900D01*
X324600Y163300D01*
X324200D01*
Y162900D01*
X324600Y162500D01*
X324200Y162100D01*
Y161700D01*
X324600Y162100D02*
X324800D01*
X325000Y162300D01*
X325200Y162100D01*
X325400D01*
Y162300D01*
X325200Y162500D01*
X325400Y162700D01*
Y162900D01*
X325200D01*
X325000Y162700D01*
X324800Y162900D01*
X324600D01*
Y162700D01*
X324800Y162500D01*
X324600Y162300D01*
Y162100D01*
X324200Y174200D02*
X324600D01*
X325000Y174600D01*
X325400Y174200D01*
X325800D01*
Y174600D01*
X325400Y175000D01*
X325800Y175400D01*
Y175800D01*
X325400D01*
X325000Y175400D01*
X324600Y175800D01*
X324200D01*
Y175400D01*
X324600Y175000D01*
X324200Y174600D01*
Y174200D01*
X324600Y174600D02*
X324800D01*
X325000Y174800D01*
X325200Y174600D01*
X325400D01*
Y174800D01*
X325200Y175000D01*
X325400Y175200D01*
Y175400D01*
X325200D01*
X325000Y175200D01*
X324800Y175400D01*
X324600D01*
Y175200D01*
X324800Y175000D01*
X324600Y174800D01*
Y174600D01*
X324200Y186700D02*
X324600D01*
X325000Y187100D01*
X325400Y186700D01*
X325800D01*
Y187100D01*
X325400Y187500D01*
X325800Y187900D01*
Y188300D01*
X325400D01*
X325000Y187900D01*
X324600Y188300D01*
X324200D01*
Y187900D01*
X324600Y187500D01*
X324200Y187100D01*
Y186700D01*
X324600Y187100D02*
X324800D01*
X325000Y187300D01*
X325200Y187100D01*
X325400D01*
Y187300D01*
X325200Y187500D01*
X325400Y187700D01*
Y187900D01*
X325200D01*
X325000Y187700D01*
X324800Y187900D01*
X324600D01*
Y187700D01*
X324800Y187500D01*
X324600Y187300D01*
Y187100D01*
X699200Y84200D02*
X699600D01*
X700000Y84600D01*
X700400Y84200D01*
X700800D01*
Y84600D01*
X700400Y85000D01*
X700800Y85400D01*
Y85800D01*
X700400D01*
X700000Y85400D01*
X699600Y85800D01*
X699200D01*
Y85400D01*
X699600Y85000D01*
X699200Y84600D01*
Y84200D01*
X699600Y84600D02*
X699800D01*
X700000Y84800D01*
X700200Y84600D01*
X700400D01*
Y84800D01*
X700200Y85000D01*
X700400Y85200D01*
Y85400D01*
X700200D01*
X700000Y85200D01*
X699800Y85400D01*
X699600D01*
Y85200D01*
X699800Y85000D01*
X699600Y84800D01*
Y84600D01*
X686700Y84200D02*
X687100D01*
X687500Y84600D01*
X687900Y84200D01*
X688300D01*
Y84600D01*
X687900Y85000D01*
X688300Y85400D01*
Y85800D01*
X687900D01*
X687500Y85400D01*
X687100Y85800D01*
X686700D01*
Y85400D01*
X687100Y85000D01*
X686700Y84600D01*
Y84200D01*
X687100Y84600D02*
X687300D01*
X687500Y84800D01*
X687700Y84600D01*
X687900D01*
Y84800D01*
X687700Y85000D01*
X687900Y85200D01*
Y85400D01*
X687700D01*
X687500Y85200D01*
X687300Y85400D01*
X687100D01*
Y85200D01*
X687300Y85000D01*
X687100Y84800D01*
Y84600D01*
X674200Y84200D02*
X674600D01*
X675000Y84600D01*
X675400Y84200D01*
X675800D01*
Y84600D01*
X675400Y85000D01*
X675800Y85400D01*
Y85800D01*
X675400D01*
X675000Y85400D01*
X674600Y85800D01*
X674200D01*
Y85400D01*
X674600Y85000D01*
X674200Y84600D01*
Y84200D01*
X674600Y84600D02*
X674800D01*
X675000Y84800D01*
X675200Y84600D01*
X675400D01*
Y84800D01*
X675200Y85000D01*
X675400Y85200D01*
Y85400D01*
X675200D01*
X675000Y85200D01*
X674800Y85400D01*
X674600D01*
Y85200D01*
X674800Y85000D01*
X674600Y84800D01*
Y84600D01*
X661700Y84200D02*
X662100D01*
X662500Y84600D01*
X662900Y84200D01*
X663300D01*
Y84600D01*
X662900Y85000D01*
X663300Y85400D01*
Y85800D01*
X662900D01*
X662500Y85400D01*
X662100Y85800D01*
X661700D01*
Y85400D01*
X662100Y85000D01*
X661700Y84600D01*
Y84200D01*
X662100Y84600D02*
X662300D01*
X662500Y84800D01*
X662700Y84600D01*
X662900D01*
Y84800D01*
X662700Y85000D01*
X662900Y85200D01*
Y85400D01*
X662700D01*
X662500Y85200D01*
X662300Y85400D01*
X662100D01*
Y85200D01*
X662300Y85000D01*
X662100Y84800D01*
Y84600D01*
X649200Y84200D02*
X649600D01*
X650000Y84600D01*
X650400Y84200D01*
X650800D01*
Y84600D01*
X650400Y85000D01*
X650800Y85400D01*
Y85800D01*
X650400D01*
X650000Y85400D01*
X649600Y85800D01*
X649200D01*
Y85400D01*
X649600Y85000D01*
X649200Y84600D01*
Y84200D01*
X649600Y84600D02*
X649800D01*
X650000Y84800D01*
X650200Y84600D01*
X650400D01*
Y84800D01*
X650200Y85000D01*
X650400Y85200D01*
Y85400D01*
X650200D01*
X650000Y85200D01*
X649800Y85400D01*
X649600D01*
Y85200D01*
X649800Y85000D01*
X649600Y84800D01*
Y84600D01*
X636700Y84200D02*
X637100D01*
X637500Y84600D01*
X637900Y84200D01*
X638300D01*
Y84600D01*
X637900Y85000D01*
X638300Y85400D01*
Y85800D01*
X637900D01*
X637500Y85400D01*
X637100Y85800D01*
X636700D01*
Y85400D01*
X637100Y85000D01*
X636700Y84600D01*
Y84200D01*
X637100Y84600D02*
X637300D01*
X637500Y84800D01*
X637700Y84600D01*
X637900D01*
Y84800D01*
X637700Y85000D01*
X637900Y85200D01*
Y85400D01*
X637700D01*
X637500Y85200D01*
X637300Y85400D01*
X637100D01*
Y85200D01*
X637300Y85000D01*
X637100Y84800D01*
Y84600D01*
X624200Y84200D02*
X624600D01*
X625000Y84600D01*
X625400Y84200D01*
X625800D01*
Y84600D01*
X625400Y85000D01*
X625800Y85400D01*
Y85800D01*
X625400D01*
X625000Y85400D01*
X624600Y85800D01*
X624200D01*
Y85400D01*
X624600Y85000D01*
X624200Y84600D01*
Y84200D01*
X624600Y84600D02*
X624800D01*
X625000Y84800D01*
X625200Y84600D01*
X625400D01*
Y84800D01*
X625200Y85000D01*
X625400Y85200D01*
Y85400D01*
X625200D01*
X625000Y85200D01*
X624800Y85400D01*
X624600D01*
Y85200D01*
X624800Y85000D01*
X624600Y84800D01*
Y84600D01*
X611700Y84200D02*
X612100D01*
X612500Y84600D01*
X612900Y84200D01*
X613300D01*
Y84600D01*
X612900Y85000D01*
X613300Y85400D01*
Y85800D01*
X612900D01*
X612500Y85400D01*
X612100Y85800D01*
X611700D01*
Y85400D01*
X612100Y85000D01*
X611700Y84600D01*
Y84200D01*
X612100Y84600D02*
X612300D01*
X612500Y84800D01*
X612700Y84600D01*
X612900D01*
Y84800D01*
X612700Y85000D01*
X612900Y85200D01*
Y85400D01*
X612700D01*
X612500Y85200D01*
X612300Y85400D01*
X612100D01*
Y85200D01*
X612300Y85000D01*
X612100Y84800D01*
Y84600D01*
X599200Y84200D02*
X599600D01*
X600000Y84600D01*
X600400Y84200D01*
X600800D01*
Y84600D01*
X600400Y85000D01*
X600800Y85400D01*
Y85800D01*
X600400D01*
X600000Y85400D01*
X599600Y85800D01*
X599200D01*
Y85400D01*
X599600Y85000D01*
X599200Y84600D01*
Y84200D01*
X599600Y84600D02*
X599800D01*
X600000Y84800D01*
X600200Y84600D01*
X600400D01*
Y84800D01*
X600200Y85000D01*
X600400Y85200D01*
Y85400D01*
X600200D01*
X600000Y85200D01*
X599800Y85400D01*
X599600D01*
Y85200D01*
X599800Y85000D01*
X599600Y84800D01*
Y84600D01*
X586700Y84200D02*
X587100D01*
X587500Y84600D01*
X587900Y84200D01*
X588300D01*
Y84600D01*
X587900Y85000D01*
X588300Y85400D01*
Y85800D01*
X587900D01*
X587500Y85400D01*
X587100Y85800D01*
X586700D01*
Y85400D01*
X587100Y85000D01*
X586700Y84600D01*
Y84200D01*
X587100Y84600D02*
X587300D01*
X587500Y84800D01*
X587700Y84600D01*
X587900D01*
Y84800D01*
X587700Y85000D01*
X587900Y85200D01*
Y85400D01*
X587700D01*
X587500Y85200D01*
X587300Y85400D01*
X587100D01*
Y85200D01*
X587300Y85000D01*
X587100Y84800D01*
Y84600D01*
X574200Y84200D02*
X574600D01*
X575000Y84600D01*
X575400Y84200D01*
X575800D01*
Y84600D01*
X575400Y85000D01*
X575800Y85400D01*
Y85800D01*
X575400D01*
X575000Y85400D01*
X574600Y85800D01*
X574200D01*
Y85400D01*
X574600Y85000D01*
X574200Y84600D01*
Y84200D01*
X574600Y84600D02*
X574800D01*
X575000Y84800D01*
X575200Y84600D01*
X575400D01*
Y84800D01*
X575200Y85000D01*
X575400Y85200D01*
Y85400D01*
X575200D01*
X575000Y85200D01*
X574800Y85400D01*
X574600D01*
Y85200D01*
X574800Y85000D01*
X574600Y84800D01*
Y84600D01*
X561700Y84200D02*
X562100D01*
X562500Y84600D01*
X562900Y84200D01*
X563300D01*
Y84600D01*
X562900Y85000D01*
X563300Y85400D01*
Y85800D01*
X562900D01*
X562500Y85400D01*
X562100Y85800D01*
X561700D01*
Y85400D01*
X562100Y85000D01*
X561700Y84600D01*
Y84200D01*
X562100Y84600D02*
X562300D01*
X562500Y84800D01*
X562700Y84600D01*
X562900D01*
Y84800D01*
X562700Y85000D01*
X562900Y85200D01*
Y85400D01*
X562700D01*
X562500Y85200D01*
X562300Y85400D01*
X562100D01*
Y85200D01*
X562300Y85000D01*
X562100Y84800D01*
Y84600D01*
X549200Y84200D02*
X549600D01*
X550000Y84600D01*
X550400Y84200D01*
X550800D01*
Y84600D01*
X550400Y85000D01*
X550800Y85400D01*
Y85800D01*
X550400D01*
X550000Y85400D01*
X549600Y85800D01*
X549200D01*
Y85400D01*
X549600Y85000D01*
X549200Y84600D01*
Y84200D01*
X549600Y84600D02*
X549800D01*
X550000Y84800D01*
X550200Y84600D01*
X550400D01*
Y84800D01*
X550200Y85000D01*
X550400Y85200D01*
Y85400D01*
X550200D01*
X550000Y85200D01*
X549800Y85400D01*
X549600D01*
Y85200D01*
X549800Y85000D01*
X549600Y84800D01*
Y84600D01*
X536700Y84200D02*
X537100D01*
X537500Y84600D01*
X537900Y84200D01*
X538300D01*
Y84600D01*
X537900Y85000D01*
X538300Y85400D01*
Y85800D01*
X537900D01*
X537500Y85400D01*
X537100Y85800D01*
X536700D01*
Y85400D01*
X537100Y85000D01*
X536700Y84600D01*
Y84200D01*
X537100Y84600D02*
X537300D01*
X537500Y84800D01*
X537700Y84600D01*
X537900D01*
Y84800D01*
X537700Y85000D01*
X537900Y85200D01*
Y85400D01*
X537700D01*
X537500Y85200D01*
X537300Y85400D01*
X537100D01*
Y85200D01*
X537300Y85000D01*
X537100Y84800D01*
Y84600D01*
X524200Y84200D02*
X524600D01*
X525000Y84600D01*
X525400Y84200D01*
X525800D01*
Y84600D01*
X525400Y85000D01*
X525800Y85400D01*
Y85800D01*
X525400D01*
X525000Y85400D01*
X524600Y85800D01*
X524200D01*
Y85400D01*
X524600Y85000D01*
X524200Y84600D01*
Y84200D01*
X524600Y84600D02*
X524800D01*
X525000Y84800D01*
X525200Y84600D01*
X525400D01*
Y84800D01*
X525200Y85000D01*
X525400Y85200D01*
Y85400D01*
X525200D01*
X525000Y85200D01*
X524800Y85400D01*
X524600D01*
Y85200D01*
X524800Y85000D01*
X524600Y84800D01*
Y84600D01*
X511700Y84200D02*
X512100D01*
X512500Y84600D01*
X512900Y84200D01*
X513300D01*
Y84600D01*
X512900Y85000D01*
X513300Y85400D01*
Y85800D01*
X512900D01*
X512500Y85400D01*
X512100Y85800D01*
X511700D01*
Y85400D01*
X512100Y85000D01*
X511700Y84600D01*
Y84200D01*
X512100Y84600D02*
X512300D01*
X512500Y84800D01*
X512700Y84600D01*
X512900D01*
Y84800D01*
X512700Y85000D01*
X512900Y85200D01*
Y85400D01*
X512700D01*
X512500Y85200D01*
X512300Y85400D01*
X512100D01*
Y85200D01*
X512300Y85000D01*
X512100Y84800D01*
Y84600D01*
X499200Y84200D02*
X499600D01*
X500000Y84600D01*
X500400Y84200D01*
X500800D01*
Y84600D01*
X500400Y85000D01*
X500800Y85400D01*
Y85800D01*
X500400D01*
X500000Y85400D01*
X499600Y85800D01*
X499200D01*
Y85400D01*
X499600Y85000D01*
X499200Y84600D01*
Y84200D01*
X499600Y84600D02*
X499800D01*
X500000Y84800D01*
X500200Y84600D01*
X500400D01*
Y84800D01*
X500200Y85000D01*
X500400Y85200D01*
Y85400D01*
X500200D01*
X500000Y85200D01*
X499800Y85400D01*
X499600D01*
Y85200D01*
X499800Y85000D01*
X499600Y84800D01*
Y84600D01*
X486700Y84200D02*
X487100D01*
X487500Y84600D01*
X487900Y84200D01*
X488300D01*
Y84600D01*
X487900Y85000D01*
X488300Y85400D01*
Y85800D01*
X487900D01*
X487500Y85400D01*
X487100Y85800D01*
X486700D01*
Y85400D01*
X487100Y85000D01*
X486700Y84600D01*
Y84200D01*
X487100Y84600D02*
X487300D01*
X487500Y84800D01*
X487700Y84600D01*
X487900D01*
Y84800D01*
X487700Y85000D01*
X487900Y85200D01*
Y85400D01*
X487700D01*
X487500Y85200D01*
X487300Y85400D01*
X487100D01*
Y85200D01*
X487300Y85000D01*
X487100Y84800D01*
Y84600D01*
X474200Y84200D02*
X474600D01*
X475000Y84600D01*
X475400Y84200D01*
X475800D01*
Y84600D01*
X475400Y85000D01*
X475800Y85400D01*
Y85800D01*
X475400D01*
X475000Y85400D01*
X474600Y85800D01*
X474200D01*
Y85400D01*
X474600Y85000D01*
X474200Y84600D01*
Y84200D01*
X474600Y84600D02*
X474800D01*
X475000Y84800D01*
X475200Y84600D01*
X475400D01*
Y84800D01*
X475200Y85000D01*
X475400Y85200D01*
Y85400D01*
X475200D01*
X475000Y85200D01*
X474800Y85400D01*
X474600D01*
Y85200D01*
X474800Y85000D01*
X474600Y84800D01*
Y84600D01*
X461700Y84200D02*
X462100D01*
X462500Y84600D01*
X462900Y84200D01*
X463300D01*
Y84600D01*
X462900Y85000D01*
X463300Y85400D01*
Y85800D01*
X462900D01*
X462500Y85400D01*
X462100Y85800D01*
X461700D01*
Y85400D01*
X462100Y85000D01*
X461700Y84600D01*
Y84200D01*
X462100Y84600D02*
X462300D01*
X462500Y84800D01*
X462700Y84600D01*
X462900D01*
Y84800D01*
X462700Y85000D01*
X462900Y85200D01*
Y85400D01*
X462700D01*
X462500Y85200D01*
X462300Y85400D01*
X462100D01*
Y85200D01*
X462300Y85000D01*
X462100Y84800D01*
Y84600D01*
X449200Y84200D02*
X449600D01*
X450000Y84600D01*
X450400Y84200D01*
X450800D01*
Y84600D01*
X450400Y85000D01*
X450800Y85400D01*
Y85800D01*
X450400D01*
X450000Y85400D01*
X449600Y85800D01*
X449200D01*
Y85400D01*
X449600Y85000D01*
X449200Y84600D01*
Y84200D01*
X449600Y84600D02*
X449800D01*
X450000Y84800D01*
X450200Y84600D01*
X450400D01*
Y84800D01*
X450200Y85000D01*
X450400Y85200D01*
Y85400D01*
X450200D01*
X450000Y85200D01*
X449800Y85400D01*
X449600D01*
Y85200D01*
X449800Y85000D01*
X449600Y84800D01*
Y84600D01*
X436700Y84200D02*
X437100D01*
X437500Y84600D01*
X437900Y84200D01*
X438300D01*
Y84600D01*
X437900Y85000D01*
X438300Y85400D01*
Y85800D01*
X437900D01*
X437500Y85400D01*
X437100Y85800D01*
X436700D01*
Y85400D01*
X437100Y85000D01*
X436700Y84600D01*
Y84200D01*
X437100Y84600D02*
X437300D01*
X437500Y84800D01*
X437700Y84600D01*
X437900D01*
Y84800D01*
X437700Y85000D01*
X437900Y85200D01*
Y85400D01*
X437700D01*
X437500Y85200D01*
X437300Y85400D01*
X437100D01*
Y85200D01*
X437300Y85000D01*
X437100Y84800D01*
Y84600D01*
X424200Y84200D02*
X424600D01*
X425000Y84600D01*
X425400Y84200D01*
X425800D01*
Y84600D01*
X425400Y85000D01*
X425800Y85400D01*
Y85800D01*
X425400D01*
X425000Y85400D01*
X424600Y85800D01*
X424200D01*
Y85400D01*
X424600Y85000D01*
X424200Y84600D01*
Y84200D01*
X424600Y84600D02*
X424800D01*
X425000Y84800D01*
X425200Y84600D01*
X425400D01*
Y84800D01*
X425200Y85000D01*
X425400Y85200D01*
Y85400D01*
X425200D01*
X425000Y85200D01*
X424800Y85400D01*
X424600D01*
Y85200D01*
X424800Y85000D01*
X424600Y84800D01*
Y84600D01*
X411700Y84200D02*
X412100D01*
X412500Y84600D01*
X412900Y84200D01*
X413300D01*
Y84600D01*
X412900Y85000D01*
X413300Y85400D01*
Y85800D01*
X412900D01*
X412500Y85400D01*
X412100Y85800D01*
X411700D01*
Y85400D01*
X412100Y85000D01*
X411700Y84600D01*
Y84200D01*
X412100Y84600D02*
X412300D01*
X412500Y84800D01*
X412700Y84600D01*
X412900D01*
Y84800D01*
X412700Y85000D01*
X412900Y85200D01*
Y85400D01*
X412700D01*
X412500Y85200D01*
X412300Y85400D01*
X412100D01*
Y85200D01*
X412300Y85000D01*
X412100Y84800D01*
Y84600D01*
X399200Y84200D02*
X399600D01*
X400000Y84600D01*
X400400Y84200D01*
X400800D01*
Y84600D01*
X400400Y85000D01*
X400800Y85400D01*
Y85800D01*
X400400D01*
X400000Y85400D01*
X399600Y85800D01*
X399200D01*
Y85400D01*
X399600Y85000D01*
X399200Y84600D01*
Y84200D01*
X399600Y84600D02*
X399800D01*
X400000Y84800D01*
X400200Y84600D01*
X400400D01*
Y84800D01*
X400200Y85000D01*
X400400Y85200D01*
Y85400D01*
X400200D01*
X400000Y85200D01*
X399800Y85400D01*
X399600D01*
Y85200D01*
X399800Y85000D01*
X399600Y84800D01*
Y84600D01*
X386700Y84200D02*
X387100D01*
X387500Y84600D01*
X387900Y84200D01*
X388300D01*
Y84600D01*
X387900Y85000D01*
X388300Y85400D01*
Y85800D01*
X387900D01*
X387500Y85400D01*
X387100Y85800D01*
X386700D01*
Y85400D01*
X387100Y85000D01*
X386700Y84600D01*
Y84200D01*
X387100Y84600D02*
X387300D01*
X387500Y84800D01*
X387700Y84600D01*
X387900D01*
Y84800D01*
X387700Y85000D01*
X387900Y85200D01*
Y85400D01*
X387700D01*
X387500Y85200D01*
X387300Y85400D01*
X387100D01*
Y85200D01*
X387300Y85000D01*
X387100Y84800D01*
Y84600D01*
X374200Y84200D02*
X374600D01*
X375000Y84600D01*
X375400Y84200D01*
X375800D01*
Y84600D01*
X375400Y85000D01*
X375800Y85400D01*
Y85800D01*
X375400D01*
X375000Y85400D01*
X374600Y85800D01*
X374200D01*
Y85400D01*
X374600Y85000D01*
X374200Y84600D01*
Y84200D01*
X374600Y84600D02*
X374800D01*
X375000Y84800D01*
X375200Y84600D01*
X375400D01*
Y84800D01*
X375200Y85000D01*
X375400Y85200D01*
Y85400D01*
X375200D01*
X375000Y85200D01*
X374800Y85400D01*
X374600D01*
Y85200D01*
X374800Y85000D01*
X374600Y84800D01*
Y84600D01*
X361700Y84200D02*
X362100D01*
X362500Y84600D01*
X362900Y84200D01*
X363300D01*
Y84600D01*
X362900Y85000D01*
X363300Y85400D01*
Y85800D01*
X362900D01*
X362500Y85400D01*
X362100Y85800D01*
X361700D01*
Y85400D01*
X362100Y85000D01*
X361700Y84600D01*
Y84200D01*
X362100Y84600D02*
X362300D01*
X362500Y84800D01*
X362700Y84600D01*
X362900D01*
Y84800D01*
X362700Y85000D01*
X362900Y85200D01*
Y85400D01*
X362700D01*
X362500Y85200D01*
X362300Y85400D01*
X362100D01*
Y85200D01*
X362300Y85000D01*
X362100Y84800D01*
Y84600D01*
X349200Y84200D02*
X349600D01*
X350000Y84600D01*
X350400Y84200D01*
X350800D01*
Y84600D01*
X350400Y85000D01*
X350800Y85400D01*
Y85800D01*
X350400D01*
X350000Y85400D01*
X349600Y85800D01*
X349200D01*
Y85400D01*
X349600Y85000D01*
X349200Y84600D01*
Y84200D01*
X349600Y84600D02*
X349800D01*
X350000Y84800D01*
X350200Y84600D01*
X350400D01*
Y84800D01*
X350200Y85000D01*
X350400Y85200D01*
Y85400D01*
X350200D01*
X350000Y85200D01*
X349800Y85400D01*
X349600D01*
Y85200D01*
X349800Y85000D01*
X349600Y84800D01*
Y84600D01*
X384003Y281503D02*
X384403D01*
X384803Y281903D01*
X385203Y281503D01*
X385603D01*
Y281903D01*
X385203Y282303D01*
X385603Y282703D01*
Y283103D01*
X385203D01*
X384803Y282703D01*
X384403Y283103D01*
X384003D01*
Y282703D01*
X384403Y282303D01*
X384003Y281903D01*
Y281503D01*
X384403Y281903D02*
X384603D01*
X384803Y282103D01*
X385003Y281903D01*
X385203D01*
Y282103D01*
X385003Y282303D01*
X385203Y282503D01*
Y282703D01*
X385003D01*
X384803Y282503D01*
X384603Y282703D01*
X384403D01*
Y282503D01*
X384603Y282303D01*
X384403Y282103D01*
Y281903D01*
X371503Y281503D02*
X371903D01*
X372303Y281903D01*
X372703Y281503D01*
X373103D01*
Y281903D01*
X372703Y282303D01*
X373103Y282703D01*
Y283103D01*
X372703D01*
X372303Y282703D01*
X371903Y283103D01*
X371503D01*
Y282703D01*
X371903Y282303D01*
X371503Y281903D01*
Y281503D01*
X371903Y281903D02*
X372103D01*
X372303Y282103D01*
X372503Y281903D01*
X372703D01*
Y282103D01*
X372503Y282303D01*
X372703Y282503D01*
Y282703D01*
X372503D01*
X372303Y282503D01*
X372103Y282703D01*
X371903D01*
Y282503D01*
X372103Y282303D01*
X371903Y282103D01*
Y281903D01*
X359003Y281503D02*
X359403D01*
X359803Y281903D01*
X360203Y281503D01*
X360603D01*
Y281903D01*
X360203Y282303D01*
X360603Y282703D01*
Y283103D01*
X360203D01*
X359803Y282703D01*
X359403Y283103D01*
X359003D01*
Y282703D01*
X359403Y282303D01*
X359003Y281903D01*
Y281503D01*
X359403Y281903D02*
X359603D01*
X359803Y282103D01*
X360003Y281903D01*
X360203D01*
Y282103D01*
X360003Y282303D01*
X360203Y282503D01*
Y282703D01*
X360003D01*
X359803Y282503D01*
X359603Y282703D01*
X359403D01*
Y282503D01*
X359603Y282303D01*
X359403Y282103D01*
Y281903D01*
X346503Y281503D02*
X346903D01*
X347303Y281903D01*
X347703Y281503D01*
X348103D01*
Y281903D01*
X347703Y282303D01*
X348103Y282703D01*
Y283103D01*
X347703D01*
X347303Y282703D01*
X346903Y283103D01*
X346503D01*
Y282703D01*
X346903Y282303D01*
X346503Y281903D01*
Y281503D01*
X346903Y281903D02*
X347103D01*
X347303Y282103D01*
X347503Y281903D01*
X347703D01*
Y282103D01*
X347503Y282303D01*
X347703Y282503D01*
Y282703D01*
X347503D01*
X347303Y282503D01*
X347103Y282703D01*
X346903D01*
Y282503D01*
X347103Y282303D01*
X346903Y282103D01*
Y281903D01*
X334003Y281503D02*
X334403D01*
X334803Y281903D01*
X335203Y281503D01*
X335603D01*
Y281903D01*
X335203Y282303D01*
X335603Y282703D01*
Y283103D01*
X335203D01*
X334803Y282703D01*
X334403Y283103D01*
X334003D01*
Y282703D01*
X334403Y282303D01*
X334003Y281903D01*
Y281503D01*
X334403Y281903D02*
X334603D01*
X334803Y282103D01*
X335003Y281903D01*
X335203D01*
Y282103D01*
X335003Y282303D01*
X335203Y282503D01*
Y282703D01*
X335003D01*
X334803Y282503D01*
X334603Y282703D01*
X334403D01*
Y282503D01*
X334603Y282303D01*
X334403Y282103D01*
Y281903D01*
X611700Y196700D02*
X612100D01*
X612500Y197100D01*
X612900Y196700D01*
X613300D01*
Y197100D01*
X612900Y197500D01*
X613300Y197900D01*
Y198300D01*
X612900D01*
X612500Y197900D01*
X612100Y198300D01*
X611700D01*
Y197900D01*
X612100Y197500D01*
X611700Y197100D01*
Y196700D01*
X612100Y197100D02*
X612300D01*
X612500Y197300D01*
X612700Y197100D01*
X612900D01*
Y197300D01*
X612700Y197500D01*
X612900Y197700D01*
Y197900D01*
X612700D01*
X612500Y197700D01*
X612300Y197900D01*
X612100D01*
Y197700D01*
X612300Y197500D01*
X612100Y197300D01*
Y197100D01*
X599200Y196700D02*
X599600D01*
X600000Y197100D01*
X600400Y196700D01*
X600800D01*
Y197100D01*
X600400Y197500D01*
X600800Y197900D01*
Y198300D01*
X600400D01*
X600000Y197900D01*
X599600Y198300D01*
X599200D01*
Y197900D01*
X599600Y197500D01*
X599200Y197100D01*
Y196700D01*
X599600Y197100D02*
X599800D01*
X600000Y197300D01*
X600200Y197100D01*
X600400D01*
Y197300D01*
X600200Y197500D01*
X600400Y197700D01*
Y197900D01*
X600200D01*
X600000Y197700D01*
X599800Y197900D01*
X599600D01*
Y197700D01*
X599800Y197500D01*
X599600Y197300D01*
Y197100D01*
X567700Y185200D02*
X568100D01*
X568500Y185600D01*
X568900Y185200D01*
X569300D01*
Y185600D01*
X568900Y186000D01*
X569300Y186400D01*
Y186800D01*
X568900D01*
X568500Y186400D01*
X568100Y186800D01*
X567700D01*
Y186400D01*
X568100Y186000D01*
X567700Y185600D01*
Y185200D01*
X568100Y185600D02*
X568300D01*
X568500Y185800D01*
X568700Y185600D01*
X568900D01*
Y185800D01*
X568700Y186000D01*
X568900Y186200D01*
Y186400D01*
X568700D01*
X568500Y186200D01*
X568300Y186400D01*
X568100D01*
Y186200D01*
X568300Y186000D01*
X568100Y185800D01*
Y185600D01*
X549200Y196700D02*
X549600D01*
X550000Y197100D01*
X550400Y196700D01*
X550800D01*
Y197100D01*
X550400Y197500D01*
X550800Y197900D01*
Y198300D01*
X550400D01*
X550000Y197900D01*
X549600Y198300D01*
X549200D01*
Y197900D01*
X549600Y197500D01*
X549200Y197100D01*
Y196700D01*
X549600Y197100D02*
X549800D01*
X550000Y197300D01*
X550200Y197100D01*
X550400D01*
Y197300D01*
X550200Y197500D01*
X550400Y197700D01*
Y197900D01*
X550200D01*
X550000Y197700D01*
X549800Y197900D01*
X549600D01*
Y197700D01*
X549800Y197500D01*
X549600Y197300D01*
Y197100D01*
X536700Y196700D02*
X537100D01*
X537500Y197100D01*
X537900Y196700D01*
X538300D01*
Y197100D01*
X537900Y197500D01*
X538300Y197900D01*
Y198300D01*
X537900D01*
X537500Y197900D01*
X537100Y198300D01*
X536700D01*
Y197900D01*
X537100Y197500D01*
X536700Y197100D01*
Y196700D01*
X537100Y197100D02*
X537300D01*
X537500Y197300D01*
X537700Y197100D01*
X537900D01*
Y197300D01*
X537700Y197500D01*
X537900Y197700D01*
Y197900D01*
X537700D01*
X537500Y197700D01*
X537300Y197900D01*
X537100D01*
Y197700D01*
X537300Y197500D01*
X537100Y197300D01*
Y197100D01*
X524200Y196700D02*
X524600D01*
X525000Y197100D01*
X525400Y196700D01*
X525800D01*
Y197100D01*
X525400Y197500D01*
X525800Y197900D01*
Y198300D01*
X525400D01*
X525000Y197900D01*
X524600Y198300D01*
X524200D01*
Y197900D01*
X524600Y197500D01*
X524200Y197100D01*
Y196700D01*
X524600Y197100D02*
X524800D01*
X525000Y197300D01*
X525200Y197100D01*
X525400D01*
Y197300D01*
X525200Y197500D01*
X525400Y197700D01*
Y197900D01*
X525200D01*
X525000Y197700D01*
X524800Y197900D01*
X524600D01*
Y197700D01*
X524800Y197500D01*
X524600Y197300D01*
Y197100D01*
X511700Y196700D02*
X512100D01*
X512500Y197100D01*
X512900Y196700D01*
X513300D01*
Y197100D01*
X512900Y197500D01*
X513300Y197900D01*
Y198300D01*
X512900D01*
X512500Y197900D01*
X512100Y198300D01*
X511700D01*
Y197900D01*
X512100Y197500D01*
X511700Y197100D01*
Y196700D01*
X512100Y197100D02*
X512300D01*
X512500Y197300D01*
X512700Y197100D01*
X512900D01*
Y197300D01*
X512700Y197500D01*
X512900Y197700D01*
Y197900D01*
X512700D01*
X512500Y197700D01*
X512300Y197900D01*
X512100D01*
Y197700D01*
X512300Y197500D01*
X512100Y197300D01*
Y197100D01*
X499200Y196700D02*
X499600D01*
X500000Y197100D01*
X500400Y196700D01*
X500800D01*
Y197100D01*
X500400Y197500D01*
X500800Y197900D01*
Y198300D01*
X500400D01*
X500000Y197900D01*
X499600Y198300D01*
X499200D01*
Y197900D01*
X499600Y197500D01*
X499200Y197100D01*
Y196700D01*
X499600Y197100D02*
X499800D01*
X500000Y197300D01*
X500200Y197100D01*
X500400D01*
Y197300D01*
X500200Y197500D01*
X500400Y197700D01*
Y197900D01*
X500200D01*
X500000Y197700D01*
X499800Y197900D01*
X499600D01*
Y197700D01*
X499800Y197500D01*
X499600Y197300D01*
Y197100D01*
X486700Y196700D02*
X487100D01*
X487500Y197100D01*
X487900Y196700D01*
X488300D01*
Y197100D01*
X487900Y197500D01*
X488300Y197900D01*
Y198300D01*
X487900D01*
X487500Y197900D01*
X487100Y198300D01*
X486700D01*
Y197900D01*
X487100Y197500D01*
X486700Y197100D01*
Y196700D01*
X487100Y197100D02*
X487300D01*
X487500Y197300D01*
X487700Y197100D01*
X487900D01*
Y197300D01*
X487700Y197500D01*
X487900Y197700D01*
Y197900D01*
X487700D01*
X487500Y197700D01*
X487300Y197900D01*
X487100D01*
Y197700D01*
X487300Y197500D01*
X487100Y197300D01*
Y197100D01*
X474200Y196700D02*
X474600D01*
X475000Y197100D01*
X475400Y196700D01*
X475800D01*
Y197100D01*
X475400Y197500D01*
X475800Y197900D01*
Y198300D01*
X475400D01*
X475000Y197900D01*
X474600Y198300D01*
X474200D01*
Y197900D01*
X474600Y197500D01*
X474200Y197100D01*
Y196700D01*
X474600Y197100D02*
X474800D01*
X475000Y197300D01*
X475200Y197100D01*
X475400D01*
Y197300D01*
X475200Y197500D01*
X475400Y197700D01*
Y197900D01*
X475200D01*
X475000Y197700D01*
X474800Y197900D01*
X474600D01*
Y197700D01*
X474800Y197500D01*
X474600Y197300D01*
Y197100D01*
X461700Y196700D02*
X462100D01*
X462500Y197100D01*
X462900Y196700D01*
X463300D01*
Y197100D01*
X462900Y197500D01*
X463300Y197900D01*
Y198300D01*
X462900D01*
X462500Y197900D01*
X462100Y198300D01*
X461700D01*
Y197900D01*
X462100Y197500D01*
X461700Y197100D01*
Y196700D01*
X462100Y197100D02*
X462300D01*
X462500Y197300D01*
X462700Y197100D01*
X462900D01*
Y197300D01*
X462700Y197500D01*
X462900Y197700D01*
Y197900D01*
X462700D01*
X462500Y197700D01*
X462300Y197900D01*
X462100D01*
Y197700D01*
X462300Y197500D01*
X462100Y197300D01*
Y197100D01*
X449200Y196700D02*
X449600D01*
X450000Y197100D01*
X450400Y196700D01*
X450800D01*
Y197100D01*
X450400Y197500D01*
X450800Y197900D01*
Y198300D01*
X450400D01*
X450000Y197900D01*
X449600Y198300D01*
X449200D01*
Y197900D01*
X449600Y197500D01*
X449200Y197100D01*
Y196700D01*
X449600Y197100D02*
X449800D01*
X450000Y197300D01*
X450200Y197100D01*
X450400D01*
Y197300D01*
X450200Y197500D01*
X450400Y197700D01*
Y197900D01*
X450200D01*
X450000Y197700D01*
X449800Y197900D01*
X449600D01*
Y197700D01*
X449800Y197500D01*
X449600Y197300D01*
Y197100D01*
X436700Y196700D02*
X437100D01*
X437500Y197100D01*
X437900Y196700D01*
X438300D01*
Y197100D01*
X437900Y197500D01*
X438300Y197900D01*
Y198300D01*
X437900D01*
X437500Y197900D01*
X437100Y198300D01*
X436700D01*
Y197900D01*
X437100Y197500D01*
X436700Y197100D01*
Y196700D01*
X437100Y197100D02*
X437300D01*
X437500Y197300D01*
X437700Y197100D01*
X437900D01*
Y197300D01*
X437700Y197500D01*
X437900Y197700D01*
Y197900D01*
X437700D01*
X437500Y197700D01*
X437300Y197900D01*
X437100D01*
Y197700D01*
X437300Y197500D01*
X437100Y197300D01*
Y197100D01*
X424200Y196700D02*
X424600D01*
X425000Y197100D01*
X425400Y196700D01*
X425800D01*
Y197100D01*
X425400Y197500D01*
X425800Y197900D01*
Y198300D01*
X425400D01*
X425000Y197900D01*
X424600Y198300D01*
X424200D01*
Y197900D01*
X424600Y197500D01*
X424200Y197100D01*
Y196700D01*
X424600Y197100D02*
X424800D01*
X425000Y197300D01*
X425200Y197100D01*
X425400D01*
Y197300D01*
X425200Y197500D01*
X425400Y197700D01*
Y197900D01*
X425200D01*
X425000Y197700D01*
X424800Y197900D01*
X424600D01*
Y197700D01*
X424800Y197500D01*
X424600Y197300D01*
Y197100D01*
X394200Y211700D02*
X394600D01*
X395000Y212100D01*
X395400Y211700D01*
X395800D01*
Y212100D01*
X395400Y212500D01*
X395800Y212900D01*
Y213300D01*
X395400D01*
X395000Y212900D01*
X394600Y213300D01*
X394200D01*
Y212900D01*
X394600Y212500D01*
X394200Y212100D01*
Y211700D01*
X394600Y212100D02*
X394800D01*
X395000Y212300D01*
X395200Y212100D01*
X395400D01*
Y212300D01*
X395200Y212500D01*
X395400Y212700D01*
Y212900D01*
X395200D01*
X395000Y212700D01*
X394800Y212900D01*
X394600D01*
Y212700D01*
X394800Y212500D01*
X394600Y212300D01*
Y212100D01*
X411700Y196700D02*
X412100D01*
X412500Y197100D01*
X412900Y196700D01*
X413300D01*
Y197100D01*
X412900Y197500D01*
X413300Y197900D01*
Y198300D01*
X412900D01*
X412500Y197900D01*
X412100Y198300D01*
X411700D01*
Y197900D01*
X412100Y197500D01*
X411700Y197100D01*
Y196700D01*
X412100Y197100D02*
X412300D01*
X412500Y197300D01*
X412700Y197100D01*
X412900D01*
Y197300D01*
X412700Y197500D01*
X412900Y197700D01*
Y197900D01*
X412700D01*
X412500Y197700D01*
X412300Y197900D01*
X412100D01*
Y197700D01*
X412300Y197500D01*
X412100Y197300D01*
Y197100D01*
X396700Y199200D02*
X397100D01*
X397500Y199600D01*
X397900Y199200D01*
X398300D01*
Y199600D01*
X397900Y200000D01*
X398300Y200400D01*
Y200800D01*
X397900D01*
X397500Y200400D01*
X397100Y200800D01*
X396700D01*
Y200400D01*
X397100Y200000D01*
X396700Y199600D01*
Y199200D01*
X397100Y199600D02*
X397300D01*
X397500Y199800D01*
X397700Y199600D01*
X397900D01*
Y199800D01*
X397700Y200000D01*
X397900Y200200D01*
Y200400D01*
X397700D01*
X397500Y200200D01*
X397300Y200400D01*
X397100D01*
Y200200D01*
X397300Y200000D01*
X397100Y199800D01*
Y199600D01*
X394319Y224594D02*
X394719D01*
X395119Y224994D01*
X395519Y224594D01*
X395919D01*
Y224994D01*
X395519Y225394D01*
X395919Y225794D01*
Y226194D01*
X395519D01*
X395119Y225794D01*
X394719Y226194D01*
X394319D01*
Y225794D01*
X394719Y225394D01*
X394319Y224994D01*
Y224594D01*
X394719Y224994D02*
X394919D01*
X395119Y225194D01*
X395319Y224994D01*
X395519D01*
Y225194D01*
X395319Y225394D01*
X395519Y225594D01*
Y225794D01*
X395319D01*
X395119Y225594D01*
X394919Y225794D01*
X394719D01*
Y225594D01*
X394919Y225394D01*
X394719Y225194D01*
Y224994D01*
X394200Y236700D02*
X394600D01*
X395000Y237100D01*
X395400Y236700D01*
X395800D01*
Y237100D01*
X395400Y237500D01*
X395800Y237900D01*
Y238300D01*
X395400D01*
X395000Y237900D01*
X394600Y238300D01*
X394200D01*
Y237900D01*
X394600Y237500D01*
X394200Y237100D01*
Y236700D01*
X394600Y237100D02*
X394800D01*
X395000Y237300D01*
X395200Y237100D01*
X395400D01*
Y237300D01*
X395200Y237500D01*
X395400Y237700D01*
Y237900D01*
X395200D01*
X395000Y237700D01*
X394800Y237900D01*
X394600D01*
Y237700D01*
X394800Y237500D01*
X394600Y237300D01*
Y237100D01*
X394200Y249200D02*
X394600D01*
X395000Y249600D01*
X395400Y249200D01*
X395800D01*
Y249600D01*
X395400Y250000D01*
X395800Y250400D01*
Y250800D01*
X395400D01*
X395000Y250400D01*
X394600Y250800D01*
X394200D01*
Y250400D01*
X394600Y250000D01*
X394200Y249600D01*
Y249200D01*
X394600Y249600D02*
X394800D01*
X395000Y249800D01*
X395200Y249600D01*
X395400D01*
Y249800D01*
X395200Y250000D01*
X395400Y250200D01*
Y250400D01*
X395200D01*
X395000Y250200D01*
X394800Y250400D01*
X394600D01*
Y250200D01*
X394800Y250000D01*
X394600Y249800D01*
Y249600D01*
X394200Y261700D02*
X394600D01*
X395000Y262100D01*
X395400Y261700D01*
X395800D01*
Y262100D01*
X395400Y262500D01*
X395800Y262900D01*
Y263300D01*
X395400D01*
X395000Y262900D01*
X394600Y263300D01*
X394200D01*
Y262900D01*
X394600Y262500D01*
X394200Y262100D01*
Y261700D01*
X394600Y262100D02*
X394800D01*
X395000Y262300D01*
X395200Y262100D01*
X395400D01*
Y262300D01*
X395200Y262500D01*
X395400Y262700D01*
Y262900D01*
X395200D01*
X395000Y262700D01*
X394800Y262900D01*
X394600D01*
Y262700D01*
X394800Y262500D01*
X394600Y262300D01*
Y262100D01*
X654200Y249200D02*
X654600D01*
X655000Y249600D01*
X655400Y249200D01*
X655800D01*
Y249600D01*
X655400Y250000D01*
X655800Y250400D01*
Y250800D01*
X655400D01*
X655000Y250400D01*
X654600Y250800D01*
X654200D01*
Y250400D01*
X654600Y250000D01*
X654200Y249600D01*
Y249200D01*
X654600Y249600D02*
X654800D01*
X655000Y249800D01*
X655200Y249600D01*
X655400D01*
Y249800D01*
X655200Y250000D01*
X655400Y250200D01*
Y250400D01*
X655200D01*
X655000Y250200D01*
X654800Y250400D01*
X654600D01*
Y250200D01*
X654800Y250000D01*
X654600Y249800D01*
Y249600D01*
X662700Y249200D02*
X663100D01*
X663500Y249600D01*
X663900Y249200D01*
X664300D01*
Y249600D01*
X663900Y250000D01*
X664300Y250400D01*
Y250800D01*
X663900D01*
X663500Y250400D01*
X663100Y250800D01*
X662700D01*
Y250400D01*
X663100Y250000D01*
X662700Y249600D01*
Y249200D01*
X663100Y249600D02*
X663300D01*
X663500Y249800D01*
X663700Y249600D01*
X663900D01*
Y249800D01*
X663700Y250000D01*
X663900Y250200D01*
Y250400D01*
X663700D01*
X663500Y250200D01*
X663300Y250400D01*
X663100D01*
Y250200D01*
X663300Y250000D01*
X663100Y249800D01*
Y249600D01*
X671700Y249200D02*
X672100D01*
X672500Y249600D01*
X672900Y249200D01*
X673300D01*
Y249600D01*
X672900Y250000D01*
X673300Y250400D01*
Y250800D01*
X672900D01*
X672500Y250400D01*
X672100Y250800D01*
X671700D01*
Y250400D01*
X672100Y250000D01*
X671700Y249600D01*
Y249200D01*
X672100Y249600D02*
X672300D01*
X672500Y249800D01*
X672700Y249600D01*
X672900D01*
Y249800D01*
X672700Y250000D01*
X672900Y250200D01*
Y250400D01*
X672700D01*
X672500Y250200D01*
X672300Y250400D01*
X672100D01*
Y250200D01*
X672300Y250000D01*
X672100Y249800D01*
Y249600D01*
X671700Y257700D02*
X672100D01*
X672500Y258100D01*
X672900Y257700D01*
X673300D01*
Y258100D01*
X672900Y258500D01*
X673300Y258900D01*
Y259300D01*
X672900D01*
X672500Y258900D01*
X672100Y259300D01*
X671700D01*
Y258900D01*
X672100Y258500D01*
X671700Y258100D01*
Y257700D01*
X672100Y258100D02*
X672300D01*
X672500Y258300D01*
X672700Y258100D01*
X672900D01*
Y258300D01*
X672700Y258500D01*
X672900Y258700D01*
Y258900D01*
X672700D01*
X672500Y258700D01*
X672300Y258900D01*
X672100D01*
Y258700D01*
X672300Y258500D01*
X672100Y258300D01*
Y258100D01*
X662700Y257700D02*
X663100D01*
X663500Y258100D01*
X663900Y257700D01*
X664300D01*
Y258100D01*
X663900Y258500D01*
X664300Y258900D01*
Y259300D01*
X663900D01*
X663500Y258900D01*
X663100Y259300D01*
X662700D01*
Y258900D01*
X663100Y258500D01*
X662700Y258100D01*
Y257700D01*
X663100Y258100D02*
X663300D01*
X663500Y258300D01*
X663700Y258100D01*
X663900D01*
Y258300D01*
X663700Y258500D01*
X663900Y258700D01*
Y258900D01*
X663700D01*
X663500Y258700D01*
X663300Y258900D01*
X663100D01*
Y258700D01*
X663300Y258500D01*
X663100Y258300D01*
Y258100D01*
X654200Y257700D02*
X654600D01*
X655000Y258100D01*
X655400Y257700D01*
X655800D01*
Y258100D01*
X655400Y258500D01*
X655800Y258900D01*
Y259300D01*
X655400D01*
X655000Y258900D01*
X654600Y259300D01*
X654200D01*
Y258900D01*
X654600Y258500D01*
X654200Y258100D01*
Y257700D01*
X654600Y258100D02*
X654800D01*
X655000Y258300D01*
X655200Y258100D01*
X655400D01*
Y258300D01*
X655200Y258500D01*
X655400Y258700D01*
Y258900D01*
X655200D01*
X655000Y258700D01*
X654800Y258900D01*
X654600D01*
Y258700D01*
X654800Y258500D01*
X654600Y258300D01*
Y258100D01*
X584700Y200700D02*
X585100Y201500D01*
X584700Y202300D01*
X585500Y201900D01*
X586300Y202300D01*
X585900Y201500D01*
X586300Y200700D01*
X585500Y201100D01*
X584700Y200700D01*
X585100Y201100D02*
X585300Y201500D01*
X585100Y201900D01*
X585500Y201700D01*
X585900Y201900D01*
X585700Y201500D01*
X585900Y201100D01*
X585500Y201300D01*
X585100Y201100D01*
X392200Y131700D02*
X392600Y132500D01*
X392200Y133300D01*
X393000Y132900D01*
X393800Y133300D01*
X393400Y132500D01*
X393800Y131700D01*
X393000Y132100D01*
X392200Y131700D01*
X392600Y132100D02*
X392800Y132500D01*
X392600Y132900D01*
X393000Y132700D01*
X393400Y132900D01*
X393200Y132500D01*
X393400Y132100D01*
X393000Y132300D01*
X392600Y132100D01*
X534200Y215700D02*
X534600Y216500D01*
X534200Y217300D01*
X535000Y216900D01*
X535800Y217300D01*
X535400Y216500D01*
X535800Y215700D01*
X535000Y216100D01*
X534200Y215700D01*
X534600Y216100D02*
X534800Y216500D01*
X534600Y216900D01*
X535000Y216700D01*
X535400Y216900D01*
X535200Y216500D01*
X535400Y216100D01*
X535000Y216300D01*
X534600Y216100D01*
X549700Y159700D02*
X550100Y160500D01*
X549700Y161300D01*
X550500Y160900D01*
X551300Y161300D01*
X550900Y160500D01*
X551300Y159700D01*
X550500Y160100D01*
X549700Y159700D01*
X550100Y160100D02*
X550300Y160500D01*
X550100Y160900D01*
X550500Y160700D01*
X550900Y160900D01*
X550700Y160500D01*
X550900Y160100D01*
X550500Y160300D01*
X550100Y160100D01*
X549200Y101200D02*
X549600Y102000D01*
X549200Y102800D01*
X550000Y102400D01*
X550800Y102800D01*
X550400Y102000D01*
X550800Y101200D01*
X550000Y101600D01*
X549200Y101200D01*
X549600Y101600D02*
X549800Y102000D01*
X549600Y102400D01*
X550000Y102200D01*
X550400Y102400D01*
X550200Y102000D01*
X550400Y101600D01*
X550000Y101800D01*
X549600Y101600D01*
X521200Y103200D02*
X521600Y104000D01*
X521200Y104800D01*
X522000Y104400D01*
X522800Y104800D01*
X522400Y104000D01*
X522800Y103200D01*
X522000Y103600D01*
X521200Y103200D01*
X521600Y103600D02*
X521800Y104000D01*
X521600Y104400D01*
X522000Y104200D01*
X522400Y104400D01*
X522200Y104000D01*
X522400Y103600D01*
X522000Y103800D01*
X521600Y103600D01*
X501200Y103200D02*
X501600Y104000D01*
X501200Y104800D01*
X502000Y104400D01*
X502800Y104800D01*
X502400Y104000D01*
X502800Y103200D01*
X502000Y103600D01*
X501200Y103200D01*
X501600Y103600D02*
X501800Y104000D01*
X501600Y104400D01*
X502000Y104200D01*
X502400Y104400D01*
X502200Y104000D01*
X502400Y103600D01*
X502000Y103800D01*
X501600Y103600D01*
X494200Y114700D02*
X494600Y115500D01*
X494200Y116300D01*
X495000Y115900D01*
X495800Y116300D01*
X495400Y115500D01*
X495800Y114700D01*
X495000Y115100D01*
X494200Y114700D01*
X494600Y115100D02*
X494800Y115500D01*
X494600Y115900D01*
X495000Y115700D01*
X495400Y115900D01*
X495200Y115500D01*
X495400Y115100D01*
X495000Y115300D01*
X494600Y115100D01*
X472700Y114700D02*
X473100Y115500D01*
X472700Y116300D01*
X473500Y115900D01*
X474300Y116300D01*
X473900Y115500D01*
X474300Y114700D01*
X473500Y115100D01*
X472700Y114700D01*
X473100Y115100D02*
X473300Y115500D01*
X473100Y115900D01*
X473500Y115700D01*
X473900Y115900D01*
X473700Y115500D01*
X473900Y115100D01*
X473500Y115300D01*
X473100Y115100D01*
X490700Y156299D02*
X491100Y157099D01*
X490700Y157899D01*
X491500Y157499D01*
X492300Y157899D01*
X491900Y157099D01*
X492300Y156299D01*
X491500Y156699D01*
X490700Y156299D01*
X491100Y156699D02*
X491300Y157099D01*
X491100Y157499D01*
X491500Y157299D01*
X491900Y157499D01*
X491700Y157099D01*
X491900Y156699D01*
X491500Y156899D01*
X491100Y156699D01*
X479700Y156200D02*
X480100Y157000D01*
X479700Y157800D01*
X480500Y157400D01*
X481300Y157800D01*
X480900Y157000D01*
X481300Y156200D01*
X480500Y156600D01*
X479700Y156200D01*
X480100Y156600D02*
X480300Y157000D01*
X480100Y157400D01*
X480500Y157200D01*
X480900Y157400D01*
X480700Y157000D01*
X480900Y156600D01*
X480500Y156800D01*
X480100Y156600D01*
X568700Y147700D02*
X569100Y148500D01*
X568700Y149300D01*
X569500Y148900D01*
X570300Y149300D01*
X569900Y148500D01*
X570300Y147700D01*
X569500Y148100D01*
X568700Y147700D01*
X569100Y148100D02*
X569300Y148500D01*
X569100Y148900D01*
X569500Y148700D01*
X569900Y148900D01*
X569700Y148500D01*
X569900Y148100D01*
X569500Y148300D01*
X569100Y148100D01*
X406700Y156700D02*
X407100Y157500D01*
X406700Y158300D01*
X407500Y157900D01*
X408300Y158300D01*
X407900Y157500D01*
X408300Y156700D01*
X407500Y157100D01*
X406700Y156700D01*
X407100Y157100D02*
X407300Y157500D01*
X407100Y157900D01*
X407500Y157700D01*
X407900Y157900D01*
X407700Y157500D01*
X407900Y157100D01*
X407500Y157300D01*
X407100Y157100D01*
X500200Y109200D02*
X500600Y110000D01*
X500200Y110800D01*
X501000Y110400D01*
X501800Y110800D01*
X501400Y110000D01*
X501800Y109200D01*
X501000Y109600D01*
X500200Y109200D01*
X500600Y109600D02*
X500800Y110000D01*
X500600Y110400D01*
X501000Y110200D01*
X501400Y110400D01*
X501200Y110000D01*
X501400Y109600D01*
X501000Y109800D01*
X500600Y109600D01*
X411200Y109200D02*
X411600Y110000D01*
X411200Y110800D01*
X412000Y110400D01*
X412800Y110800D01*
X412400Y110000D01*
X412800Y109200D01*
X412000Y109600D01*
X411200Y109200D01*
X411600Y109600D02*
X411800Y110000D01*
X411600Y110400D01*
X412000Y110200D01*
X412400Y110400D01*
X412200Y110000D01*
X412400Y109600D01*
X412000Y109800D01*
X411600Y109600D01*
X636700Y257700D02*
X637100Y258500D01*
X636700Y259300D01*
X637500Y258900D01*
X638300Y259300D01*
X637900Y258500D01*
X638300Y257700D01*
X637500Y258100D01*
X636700Y257700D01*
X637100Y258100D02*
X637300Y258500D01*
X637100Y258900D01*
X637500Y258700D01*
X637900Y258900D01*
X637700Y258500D01*
X637900Y258100D01*
X637500Y258300D01*
X637100Y258100D01*
X636700Y211700D02*
X637100Y212500D01*
X636700Y213300D01*
X637500Y212900D01*
X638300Y213300D01*
X637900Y212500D01*
X638300Y211700D01*
X637500Y212100D01*
X636700Y211700D01*
X637100Y212100D02*
X637300Y212500D01*
X637100Y212900D01*
X637500Y212700D01*
X637900Y212900D01*
X637700Y212500D01*
X637900Y212100D01*
X637500Y212300D01*
X637100Y212100D01*
D125*
X609800Y221000D02*
G03*
X609800Y221000I-800J0D01*
G01*
X599800D02*
G03*
X599800Y221000I-800J0D01*
G01*
X579800D02*
G03*
X579800Y221000I-800J0D01*
G01*
X569800D02*
G03*
X569800Y221000I-800J0D01*
G01*
X559800D02*
G03*
X559800Y221000I-800J0D01*
G01*
X687400Y281500D02*
G03*
X687400Y281500I-800J0D01*
G01*
D126*
X687000D02*
G03*
X687000Y281500I-400J0D01*
G01*
M02*
