G04*
G04 #@! TF.GenerationSoftware,Altium Limited,CircuitMaker,2.3.0 (2.3.0.3)*
G04*
G04 Layer_Color=13813960*
%FSLAX25Y25*%
%MOIN*%
G70*
G04*
G04 #@! TF.SameCoordinates,62C2B06D-8976-45AB-99A1-AE5862A21714*
G04*
G04*
G04 #@! TF.FilePolarity,Positive*
G04*
G01*
G75*
%ADD10C,0.01000*%
G36*
X694500Y372500D02*
X697500Y374500D01*
Y370500D01*
X694500Y372500D01*
D02*
G37*
D10*
X671212Y343012D02*
X693850D01*
X671212D02*
Y381989D01*
X693850D01*
Y343012D02*
Y381989D01*
X699001Y330497D02*
X701001D01*
X700001D01*
Y325499D01*
X701001Y324499D01*
X702000D01*
X703000Y325499D01*
X697002Y330497D02*
Y324499D01*
X693003D01*
X691004Y330497D02*
X689005D01*
X690004D01*
Y324499D01*
X691004D01*
X689005D01*
X682007D02*
X686005D01*
X682007Y328498D01*
Y329498D01*
X683006Y330497D01*
X685006D01*
X686005Y329498D01*
X676009Y330497D02*
X680007D01*
Y327498D01*
X678008Y328498D01*
X677008D01*
X676009Y327498D01*
Y325499D01*
X677008Y324499D01*
X679008D01*
X680007Y325499D01*
X670011Y330497D02*
X674009D01*
Y327498D01*
X672010Y328498D01*
X671010D01*
X670011Y327498D01*
Y325499D01*
X671010Y324499D01*
X673010D01*
X674009Y325499D01*
X664013Y330497D02*
X668011D01*
Y327498D01*
X666012Y328498D01*
X665012D01*
X664013Y327498D01*
Y325499D01*
X665012Y324499D01*
X667012D01*
X668011Y325499D01*
X656015Y324499D02*
Y328498D01*
X654016Y330497D01*
X652016Y328498D01*
Y324499D01*
Y327498D01*
X656015D01*
X650017Y324499D02*
Y328498D01*
X649017D01*
X648018Y327498D01*
Y324499D01*
Y327498D01*
X647018Y328498D01*
X646018Y327498D01*
Y324499D01*
X644019Y322500D02*
Y328498D01*
X641020D01*
X640020Y327498D01*
Y325499D01*
X641020Y324499D01*
X644019D01*
X628024Y329498D02*
X629024Y330497D01*
X631023D01*
X632023Y329498D01*
Y325499D01*
X631023Y324499D01*
X629024D01*
X628024Y325499D01*
Y327498D01*
X630024D01*
X625025Y328498D02*
X623026D01*
X622026Y327498D01*
Y324499D01*
X625025D01*
X626025Y325499D01*
X625025Y326499D01*
X622026D01*
X620027Y324499D02*
X618027D01*
X619027D01*
Y328498D01*
X620027D01*
X615028Y324499D02*
Y328498D01*
X612029D01*
X611030Y327498D01*
Y324499D01*
X599034Y329498D02*
X600033Y330497D01*
X602033D01*
X603032Y329498D01*
Y325499D01*
X602033Y324499D01*
X600033D01*
X599034Y325499D01*
X596035Y329498D02*
Y328498D01*
X597034D01*
X595035D01*
X596035D01*
Y325499D01*
X595035Y324499D01*
X592036Y328498D02*
Y324499D01*
Y326499D01*
X591036Y327498D01*
X590036Y328498D01*
X589037D01*
X586038Y324499D02*
X584038D01*
X585038D01*
Y330497D01*
X586038D01*
X678001Y390998D02*
X680001D01*
X679001D01*
Y386000D01*
X680001Y385000D01*
X681000D01*
X682000Y386000D01*
X672003Y390998D02*
X674003Y389998D01*
X676002Y387999D01*
Y386000D01*
X675002Y385000D01*
X673003D01*
X672003Y386000D01*
Y386999D01*
X673003Y387999D01*
X676002D01*
X684500Y97997D02*
Y91999D01*
X681501D01*
X680501Y92999D01*
Y96998D01*
X681501Y97997D01*
X684500D01*
X675503Y91999D02*
X677502D01*
X678502Y92999D01*
Y94998D01*
X677502Y95998D01*
X675503D01*
X674503Y94998D01*
Y93999D01*
X678502D01*
X672504Y91999D02*
X669505D01*
X668505Y92999D01*
X669505Y93999D01*
X671504D01*
X672504Y94998D01*
X671504Y95998D01*
X668505D01*
X666506Y91999D02*
X664506D01*
X665506D01*
Y95998D01*
X666506D01*
X659508Y90000D02*
X658508D01*
X657509Y91000D01*
Y95998D01*
X660508D01*
X661507Y94998D01*
Y92999D01*
X660508Y91999D01*
X657509D01*
X655509D02*
Y95998D01*
X652510D01*
X651511Y94998D01*
Y91999D01*
X646512D02*
X648512D01*
X649511Y92999D01*
Y94998D01*
X648512Y95998D01*
X646512D01*
X645513Y94998D01*
Y93999D01*
X649511D01*
X639514Y97997D02*
Y91999D01*
X642514D01*
X643513Y92999D01*
Y94998D01*
X642514Y95998D01*
X639514D01*
X631517Y97997D02*
Y91999D01*
X628518D01*
X627518Y92999D01*
Y93999D01*
Y94998D01*
X628518Y95998D01*
X631517D01*
X625519D02*
Y92999D01*
X624519Y91999D01*
X621520D01*
Y91000D01*
X622520Y90000D01*
X623520D01*
X621520Y91999D02*
Y95998D01*
X613523D02*
X612523D01*
Y94998D01*
X613523D01*
Y95998D01*
Y92999D02*
X612523D01*
Y91999D01*
X613523D01*
Y92999D01*
X598528Y97997D02*
X602527D01*
Y91999D01*
X598528D01*
X602527Y94998D02*
X600527D01*
X596528Y95998D02*
X592530Y91999D01*
X594529Y93999D01*
X592530Y95998D01*
X596528Y91999D01*
X589531D02*
X587531D01*
X586532Y92999D01*
Y94998D01*
X587531Y95998D01*
X589531D01*
X590530Y94998D01*
Y92999D01*
X589531Y91999D01*
X583533Y96998D02*
Y95998D01*
X584532D01*
X582533D01*
X583533D01*
Y92999D01*
X582533Y91999D01*
X579534D02*
X577535D01*
X578534D01*
Y95998D01*
X579534D01*
X570537D02*
X573536D01*
X574536Y94998D01*
Y92999D01*
X573536Y91999D01*
X570537D01*
X568538Y97997D02*
Y91999D01*
X565539D01*
X564539Y92999D01*
Y96998D01*
X565539Y97997D01*
X568538D01*
X561540Y95998D02*
X559540D01*
X558541Y94998D01*
Y91999D01*
X561540D01*
X562539Y92999D01*
X561540Y93999D01*
X558541D01*
X556541Y95998D02*
Y91999D01*
Y93999D01*
X555542Y94998D01*
X554542Y95998D01*
X553542D01*
X550543Y91999D02*
Y97997D01*
Y93999D02*
X547544Y95998D01*
X550543Y93999D02*
X547544Y91999D01*
X544545D02*
Y95998D01*
X541546D01*
X540547Y94998D01*
Y91999D01*
X535548D02*
X537547D01*
X538547Y92999D01*
Y94998D01*
X537547Y95998D01*
X535548D01*
X534549Y94998D01*
Y93999D01*
X538547D01*
X532549Y91999D02*
X529550D01*
X528550Y92999D01*
X529550Y93999D01*
X531550D01*
X532549Y94998D01*
X531550Y95998D01*
X528550D01*
X526551Y91999D02*
X523552D01*
X522552Y92999D01*
X523552Y93999D01*
X525551D01*
X526551Y94998D01*
X525551Y95998D01*
X522552D01*
X516554Y96998D02*
X517554Y97997D01*
X519553D01*
X520553Y96998D01*
Y92999D01*
X519553Y91999D01*
X517554D01*
X516554Y92999D01*
Y94998D01*
X518554D01*
X513555Y95998D02*
X511556D01*
X510556Y94998D01*
Y91999D01*
X513555D01*
X514555Y92999D01*
X513555Y93999D01*
X510556D01*
X508557Y91999D02*
Y95998D01*
X507557D01*
X506558Y94998D01*
Y91999D01*
Y94998D01*
X505558Y95998D01*
X504558Y94998D01*
Y91999D01*
X502559D02*
X500560D01*
X501559D01*
Y95998D01*
X502559D01*
X497561Y91999D02*
Y95998D01*
X494561D01*
X493562Y94998D01*
Y91999D01*
X489563Y90000D02*
X488563D01*
X487564Y91000D01*
Y95998D01*
X490563D01*
X491562Y94998D01*
Y92999D01*
X490563Y91999D01*
X487564D01*
X662998Y377001D02*
Y382999D01*
X659999D01*
X658999Y381999D01*
Y380000D01*
X659999Y379000D01*
X662998D01*
X660998D02*
X658999Y377001D01*
X656999D02*
X655000D01*
X656000D01*
Y382999D01*
X656999Y381999D01*
X652001D02*
X651002Y382999D01*
X649002D01*
X648002Y381999D01*
Y381000D01*
X649002Y380000D01*
X650002D01*
X649002D01*
X648002Y379000D01*
Y378001D01*
X649002Y377001D01*
X651002D01*
X652001Y378001D01*
X663998Y342501D02*
Y348499D01*
X660998D01*
X659999Y347499D01*
Y345500D01*
X660998Y344500D01*
X663998D01*
X661998D02*
X659999Y342501D01*
X658000D02*
X656000D01*
X657000D01*
Y348499D01*
X658000Y347499D01*
X649002Y342501D02*
X653001D01*
X649002Y346500D01*
Y347499D01*
X650002Y348499D01*
X652001D01*
X653001Y347499D01*
M02*
