G04*
G04 #@! TF.GenerationSoftware,Altium Limited,CircuitMaker,2.3.0 (2.3.0.3)*
G04*
G04 Layer_Color=7318015*
%FSLAX25Y25*%
%MOIN*%
G70*
G04*
G04 #@! TF.SameCoordinates,62C2B06D-8976-45AB-99A1-AE5862A21714*
G04*
G04*
G04 #@! TF.FilePolarity,Positive*
G04*
G01*
G75*
%ADD16R,0.04000X0.02000*%
%ADD17R,0.04134X0.03543*%
%ADD18R,0.06000X0.06000*%
%ADD19R,0.04134X0.03937*%
%ADD20R,0.06000X0.06000*%
%ADD21R,0.04724X0.04331*%
%ADD22R,0.03937X0.04134*%
G04:AMPARAMS|DCode=23|XSize=35mil|YSize=35mil|CornerRadius=4.38mil|HoleSize=0mil|Usage=FLASHONLY|Rotation=270.000|XOffset=0mil|YOffset=0mil|HoleType=Round|Shape=RoundedRectangle|*
%AMROUNDEDRECTD23*
21,1,0.03500,0.02625,0,0,270.0*
21,1,0.02625,0.03500,0,0,270.0*
1,1,0.00875,-0.01312,-0.01312*
1,1,0.00875,-0.01312,0.01312*
1,1,0.00875,0.01312,0.01312*
1,1,0.00875,0.01312,-0.01312*
%
%ADD23ROUNDEDRECTD23*%
%ADD24R,0.05512X0.05905*%
%ADD25R,0.03937X0.03740*%
%ADD26R,0.03740X0.03937*%
%ADD27R,0.03347X0.02756*%
%ADD28R,0.03000X0.03000*%
%ADD29R,0.03937X0.02756*%
%ADD30R,0.15748X0.07874*%
%ADD31R,0.04134X0.04331*%
%ADD32R,0.05000X0.03200*%
%ADD33R,0.05000X0.02800*%
%ADD34R,0.05000X0.03000*%
D16*
X541000Y123000D02*
D03*
Y128000D02*
D03*
Y133000D02*
D03*
Y138000D02*
D03*
X522000D02*
D03*
Y133000D02*
D03*
Y128000D02*
D03*
Y123000D02*
D03*
D17*
X401500Y107500D02*
D03*
X401000Y157354D02*
D03*
X550500Y153854D02*
D03*
Y148146D02*
D03*
X516000Y104146D02*
D03*
Y109854D02*
D03*
X480000Y116342D02*
D03*
Y121658D02*
D03*
X480500Y141342D02*
D03*
Y146658D02*
D03*
X401500Y113209D02*
D03*
X401000Y151646D02*
D03*
D18*
X478000Y278000D02*
D03*
Y270500D02*
D03*
X452500Y255000D02*
D03*
Y247500D02*
D03*
X478000Y247000D02*
D03*
Y254500D02*
D03*
X432500Y255000D02*
D03*
Y247500D02*
D03*
X415000D02*
D03*
Y255000D02*
D03*
D19*
X443547Y125500D02*
D03*
X449453D02*
D03*
X449953Y140500D02*
D03*
X444047D02*
D03*
X375547Y142500D02*
D03*
X381453D02*
D03*
X381453Y123000D02*
D03*
X375547D02*
D03*
D20*
X612500Y121500D02*
D03*
X596500D02*
D03*
D21*
X637500Y220366D02*
D03*
Y228634D02*
D03*
D22*
Y245047D02*
D03*
Y250953D02*
D03*
X582000Y123047D02*
D03*
Y128953D02*
D03*
X560500Y148000D02*
D03*
Y153905D02*
D03*
X507500Y104047D02*
D03*
Y109953D02*
D03*
D23*
X559000Y207000D02*
D03*
Y201000D02*
D03*
D24*
X568094Y201500D02*
D03*
X579906D02*
D03*
D25*
X571500Y129150D02*
D03*
Y122850D02*
D03*
X505000Y133059D02*
D03*
Y127941D02*
D03*
X535000Y228650D02*
D03*
Y222350D02*
D03*
D26*
X601350Y130000D02*
D03*
X607650D02*
D03*
D27*
X550000Y106500D02*
D03*
Y111421D02*
D03*
D28*
X522000Y153750D02*
D03*
Y148250D02*
D03*
D29*
X489500Y115744D02*
D03*
Y121256D02*
D03*
X491500Y141244D02*
D03*
Y146756D02*
D03*
D30*
X460976Y161500D02*
D03*
Y105000D02*
D03*
X433024D02*
D03*
Y161500D02*
D03*
D31*
X386756Y132500D02*
D03*
X381244D02*
D03*
D32*
X685669Y240892D02*
D03*
Y219292D02*
D03*
D33*
Y236092D02*
D03*
Y232092D02*
D03*
D34*
Y228092D02*
D03*
Y224092D02*
D03*
M02*
