G04*
G04 #@! TF.GenerationSoftware,Altium Limited,CircuitMaker,2.3.0 (2.3.0.3)*
G04*
G04 Layer_Color=128*
%FSLAX25Y25*%
%MOIN*%
G70*
G04*
G04 #@! TF.SameCoordinates,62C2B06D-8976-45AB-99A1-AE5862A21714*
G04*
G04*
G04 #@! TF.FilePolarity,Positive*
G04*
G01*
G75*
%ADD124C,0.00200*%
D124*
X539150Y178000D02*
X543850D01*
X541500Y175650D02*
Y180350D01*
X519465Y178000D02*
X524165D01*
X521815Y175650D02*
Y180350D01*
X529308Y178000D02*
X534008D01*
X531658Y175650D02*
Y180350D01*
X346150Y142500D02*
X350850D01*
X348500Y140150D02*
Y144850D01*
X346150Y122815D02*
X350850D01*
X348500Y120465D02*
Y125165D01*
X346150Y132658D02*
X350850D01*
X348500Y130307D02*
Y135008D01*
X682150Y372342D02*
X686850D01*
X684500Y369992D02*
Y374693D01*
X682150Y352658D02*
X686850D01*
X684500Y350307D02*
Y355008D01*
X682150Y362500D02*
X686850D01*
X684500Y360150D02*
Y364850D01*
X606736Y221000D02*
X611264D01*
X609000Y218736D02*
Y223264D01*
X596736Y221000D02*
X601264D01*
X599000Y218736D02*
Y223264D01*
X576736Y221000D02*
X581264D01*
X579000Y218736D02*
Y223264D01*
X566736Y221000D02*
X571264D01*
X569000Y218736D02*
Y223264D01*
X556736Y221000D02*
X561264D01*
X559000Y218736D02*
Y223264D01*
X669976Y130020D02*
X676276D01*
X673126Y126870D02*
Y133169D01*
X689976Y160020D02*
X696276D01*
X693126Y156870D02*
Y163169D01*
X654976Y160020D02*
X661276D01*
X658126Y156870D02*
Y163169D01*
X652476Y130020D02*
X658776D01*
X655626Y126870D02*
Y133169D01*
X638244Y145020D02*
X642969D01*
X640606Y142657D02*
Y147382D01*
X678638Y177500D02*
X683362D01*
X681000Y175138D02*
Y179862D01*
X353700Y218291D02*
X357300D01*
X355500Y216491D02*
Y220091D01*
X353700Y247791D02*
X357300D01*
X355500Y245991D02*
Y249591D01*
X700488Y247092D02*
X702850D01*
X701669Y245911D02*
Y248273D01*
X700488Y213092D02*
X702850D01*
X701669Y211911D02*
Y214273D01*
X686028Y247100D02*
X688390D01*
X687209Y245919D02*
Y248281D01*
X686028Y213084D02*
X688390D01*
X687209Y211903D02*
Y214265D01*
X549583Y266000D02*
X552732D01*
X551158Y264425D02*
Y267575D01*
X569268Y266000D02*
X572417D01*
X570843Y264425D02*
Y267575D01*
X660000Y281500D02*
X664000D01*
X662000Y279500D02*
Y283500D01*
X672300Y300400D02*
X675300D01*
X673800Y298900D02*
Y301900D01*
X685734Y281500D02*
X687466D01*
X686600Y280634D02*
Y282366D01*
X604135Y382398D02*
X608465D01*
X606300Y380232D02*
Y384563D01*
X604135Y344602D02*
X608465D01*
X606300Y342437D02*
Y346768D01*
X633859Y373342D02*
X637796D01*
X635828Y371374D02*
Y375311D01*
X633859Y363500D02*
X637796D01*
X635828Y361531D02*
Y365469D01*
X633859Y353658D02*
X637796D01*
X635828Y351689D02*
Y355626D01*
X614268Y266000D02*
X617417D01*
X615842Y264425D02*
Y267575D01*
X594583Y266000D02*
X597732D01*
X596158Y264425D02*
Y267575D01*
X506910Y142000D02*
X508090D01*
X507500Y141409D02*
Y142591D01*
X514409Y139000D02*
X515590D01*
X515000Y138409D02*
Y139591D01*
X499409Y143500D02*
X500591D01*
X500000Y142909D02*
Y144091D01*
X591575Y176925D02*
X605354D01*
X598465Y170035D02*
Y183815D01*
X560039Y363500D02*
X573819D01*
X566929Y356610D02*
Y370390D01*
X323750Y275000D02*
X326250D01*
X325000Y273750D02*
Y276250D01*
X393750Y275000D02*
X396250D01*
X395000Y273750D02*
Y276250D01*
X327795Y98185D02*
X341575D01*
X334685Y91295D02*
Y105075D01*
X438031Y287161D02*
X451811D01*
X444921Y280272D02*
Y294051D01*
X565909Y154000D02*
X567091D01*
X566500Y153409D02*
Y154591D01*
X528909Y228500D02*
X530091D01*
X529500Y227909D02*
Y229090D01*
X484100Y270500D02*
X486900D01*
X485500Y269100D02*
Y271900D01*
X500910Y116000D02*
X502091D01*
X501500Y115409D02*
Y116591D01*
X506910Y117500D02*
X508090D01*
X507500Y116909D02*
Y118091D01*
X514409Y121000D02*
X515590D01*
X515000Y120409D02*
Y121591D01*
X323750Y262500D02*
X326250D01*
X325000Y261250D02*
Y263750D01*
X323750Y250000D02*
X326250D01*
X325000Y248750D02*
Y251250D01*
X323750Y237500D02*
X326250D01*
X325000Y236250D02*
Y238750D01*
X323750Y225000D02*
X326250D01*
X325000Y223750D02*
Y226250D01*
X323750Y212500D02*
X326250D01*
X325000Y211250D02*
Y213750D01*
X323750Y200000D02*
X326250D01*
X325000Y198750D02*
Y201250D01*
X484100Y278000D02*
X486900D01*
X485500Y276600D02*
Y279400D01*
X458600Y255000D02*
X461400D01*
X460000Y253600D02*
Y256400D01*
X458600Y247500D02*
X461400D01*
X460000Y246100D02*
Y248900D01*
X484100Y247000D02*
X486900D01*
X485500Y245600D02*
Y248400D01*
X484100Y254500D02*
X486900D01*
X485500Y253100D02*
Y255900D01*
X438600Y255000D02*
X441400D01*
X440000Y253600D02*
Y256400D01*
X438600Y247500D02*
X441400D01*
X440000Y246100D02*
Y248900D01*
X421100Y247500D02*
X423900D01*
X422500Y246100D02*
Y248900D01*
X421100Y255000D02*
X423900D01*
X422500Y253600D02*
Y256400D01*
X611250Y150000D02*
X613750D01*
X612500Y148750D02*
Y151250D01*
X611250Y162500D02*
X613750D01*
X612500Y161250D02*
Y163750D01*
X611250Y187500D02*
X613750D01*
X612500Y186250D02*
Y188750D01*
X336250Y175000D02*
X338750D01*
X337500Y173750D02*
Y176250D01*
X348750Y175000D02*
X351250D01*
X350000Y173750D02*
Y176250D01*
X361250Y175000D02*
X363750D01*
X362500Y173750D02*
Y176250D01*
X386250Y175000D02*
X388750D01*
X387500Y173750D02*
Y176250D01*
X473750Y175000D02*
X476250D01*
X475000Y173750D02*
Y176250D01*
X498750Y175000D02*
X501250D01*
X500000Y173750D02*
Y176250D01*
X411250Y175000D02*
X413750D01*
X412500Y173750D02*
Y176250D01*
X373750Y175000D02*
X376250D01*
X375000Y173750D02*
Y176250D01*
X373750Y195000D02*
X376250D01*
X375000Y193750D02*
Y196250D01*
X361250Y200000D02*
X363750D01*
X362500Y198750D02*
Y201250D01*
X406910Y132500D02*
X408090D01*
X407500Y131909D02*
Y133091D01*
X491910Y132500D02*
X493090D01*
X492500Y131909D02*
Y133091D01*
X446910Y132500D02*
X448091D01*
X447500Y131909D02*
Y133091D01*
X323750Y112500D02*
X326250D01*
X325000Y111250D02*
Y113750D01*
X323750Y125000D02*
X326250D01*
X325000Y123750D02*
Y126250D01*
X323750Y137500D02*
X326250D01*
X325000Y136250D02*
Y138750D01*
X323750Y150000D02*
X326250D01*
X325000Y148750D02*
Y151250D01*
X323750Y162500D02*
X326250D01*
X325000Y161250D02*
Y163750D01*
X323750Y175000D02*
X326250D01*
X325000Y173750D02*
Y176250D01*
X323750Y187500D02*
X326250D01*
X325000Y186250D02*
Y188750D01*
X698750Y85000D02*
X701250D01*
X700000Y83750D02*
Y86250D01*
X686250Y85000D02*
X688750D01*
X687500Y83750D02*
Y86250D01*
X673750Y85000D02*
X676250D01*
X675000Y83750D02*
Y86250D01*
X661250Y85000D02*
X663750D01*
X662500Y83750D02*
Y86250D01*
X648750Y85000D02*
X651250D01*
X650000Y83750D02*
Y86250D01*
X636250Y85000D02*
X638750D01*
X637500Y83750D02*
Y86250D01*
X623750Y85000D02*
X626250D01*
X625000Y83750D02*
Y86250D01*
X611250Y85000D02*
X613750D01*
X612500Y83750D02*
Y86250D01*
X598750Y85000D02*
X601250D01*
X600000Y83750D02*
Y86250D01*
X586250Y85000D02*
X588750D01*
X587500Y83750D02*
Y86250D01*
X573750Y85000D02*
X576250D01*
X575000Y83750D02*
Y86250D01*
X561250Y85000D02*
X563750D01*
X562500Y83750D02*
Y86250D01*
X548750Y85000D02*
X551250D01*
X550000Y83750D02*
Y86250D01*
X536250Y85000D02*
X538750D01*
X537500Y83750D02*
Y86250D01*
X523750Y85000D02*
X526250D01*
X525000Y83750D02*
Y86250D01*
X511250Y85000D02*
X513750D01*
X512500Y83750D02*
Y86250D01*
X498750Y85000D02*
X501250D01*
X500000Y83750D02*
Y86250D01*
X486250Y85000D02*
X488750D01*
X487500Y83750D02*
Y86250D01*
X473750Y85000D02*
X476250D01*
X475000Y83750D02*
Y86250D01*
X461250Y85000D02*
X463750D01*
X462500Y83750D02*
Y86250D01*
X448750Y85000D02*
X451250D01*
X450000Y83750D02*
Y86250D01*
X436250Y85000D02*
X438750D01*
X437500Y83750D02*
Y86250D01*
X423750Y85000D02*
X426250D01*
X425000Y83750D02*
Y86250D01*
X411250Y85000D02*
X413750D01*
X412500Y83750D02*
Y86250D01*
X398750Y85000D02*
X401250D01*
X400000Y83750D02*
Y86250D01*
X386250Y85000D02*
X388750D01*
X387500Y83750D02*
Y86250D01*
X373750Y85000D02*
X376250D01*
X375000Y83750D02*
Y86250D01*
X361250Y85000D02*
X363750D01*
X362500Y83750D02*
Y86250D01*
X348750Y85000D02*
X351250D01*
X350000Y83750D02*
Y86250D01*
X383553Y282303D02*
X386053D01*
X384803Y281053D02*
Y283553D01*
X371053Y282303D02*
X373553D01*
X372303Y281053D02*
Y283553D01*
X358553Y282303D02*
X361053D01*
X359803Y281053D02*
Y283553D01*
X346053Y282303D02*
X348553D01*
X347303Y281053D02*
Y283553D01*
X333553Y282303D02*
X336053D01*
X334803Y281053D02*
Y283553D01*
X611250Y197500D02*
X613750D01*
X612500Y196250D02*
Y198750D01*
X598750Y197500D02*
X601250D01*
X600000Y196250D02*
Y198750D01*
X567250Y186000D02*
X569750D01*
X568500Y184750D02*
Y187250D01*
X548750Y197500D02*
X551250D01*
X550000Y196250D02*
Y198750D01*
X536250Y197500D02*
X538750D01*
X537500Y196250D02*
Y198750D01*
X523750Y197500D02*
X526250D01*
X525000Y196250D02*
Y198750D01*
X511250Y197500D02*
X513750D01*
X512500Y196250D02*
Y198750D01*
X498750Y197500D02*
X501250D01*
X500000Y196250D02*
Y198750D01*
X486250Y197500D02*
X488750D01*
X487500Y196250D02*
Y198750D01*
X473750Y197500D02*
X476250D01*
X475000Y196250D02*
Y198750D01*
X461250Y197500D02*
X463750D01*
X462500Y196250D02*
Y198750D01*
X448750Y197500D02*
X451250D01*
X450000Y196250D02*
Y198750D01*
X436250Y197500D02*
X438750D01*
X437500Y196250D02*
Y198750D01*
X423750Y197500D02*
X426250D01*
X425000Y196250D02*
Y198750D01*
X393750Y212500D02*
X396250D01*
X395000Y211250D02*
Y213750D01*
X411250Y197500D02*
X413750D01*
X412500Y196250D02*
Y198750D01*
X396250Y200000D02*
X398750D01*
X397500Y198750D02*
Y201250D01*
X393869Y225394D02*
X396369D01*
X395119Y224144D02*
Y226644D01*
X393750Y237500D02*
X396250D01*
X395000Y236250D02*
Y238750D01*
X393750Y250000D02*
X396250D01*
X395000Y248750D02*
Y251250D01*
X393750Y262500D02*
X396250D01*
X395000Y261250D02*
Y263750D01*
X653750Y250000D02*
X656250D01*
X655000Y248750D02*
Y251250D01*
X662250Y250000D02*
X664750D01*
X663500Y248750D02*
Y251250D01*
X671250Y250000D02*
X673750D01*
X672500Y248750D02*
Y251250D01*
X671250Y258500D02*
X673750D01*
X672500Y257250D02*
Y259750D01*
X662250Y258500D02*
X664750D01*
X663500Y257250D02*
Y259750D01*
X653750Y258500D02*
X656250D01*
X655000Y257250D02*
Y259750D01*
X584909Y201500D02*
X586091D01*
X585500Y200909D02*
Y202091D01*
X392409Y132500D02*
X393590D01*
X393000Y131909D02*
Y133091D01*
X534410Y216500D02*
X535591D01*
X535000Y215910D02*
Y217091D01*
X549909Y160500D02*
X551090D01*
X550500Y159909D02*
Y161091D01*
X549409Y102000D02*
X550591D01*
X550000Y101409D02*
Y102591D01*
X521410Y104000D02*
X522590D01*
X522000Y103409D02*
Y104591D01*
X501409Y104000D02*
X502591D01*
X502000Y103409D02*
Y104591D01*
X494410Y115500D02*
X495590D01*
X495000Y114909D02*
Y116091D01*
X472909Y115500D02*
X474090D01*
X473500Y114909D02*
Y116091D01*
X490909Y157099D02*
X492090D01*
X491500Y156508D02*
Y157689D01*
X479910Y157000D02*
X481090D01*
X480500Y156409D02*
Y157591D01*
X568910Y148500D02*
X570090D01*
X569500Y147909D02*
Y149091D01*
X406910Y157500D02*
X408090D01*
X407500Y156909D02*
Y158091D01*
X500410Y110000D02*
X501590D01*
X501000Y109409D02*
Y110591D01*
X411410Y110000D02*
X412591D01*
X412000Y109409D02*
Y110591D01*
X636909Y258500D02*
X638091D01*
X637500Y257909D02*
Y259090D01*
X636909Y212500D02*
X638091D01*
X637500Y211910D02*
Y213090D01*
M02*
