G04*
G04 #@! TF.GenerationSoftware,Altium Limited,CircuitMaker,2.3.0 (2.3.0.3)*
G04*
G04 Layer_Color=8150272*
%FSLAX25Y25*%
%MOIN*%
G70*
G04*
G04 #@! TF.SameCoordinates,62C2B06D-8976-45AB-99A1-AE5862A21714*
G04*
G04*
G04 #@! TF.FilePolarity,Negative*
G04*
G01*
G75*
%ADD45R,0.04039X0.04236*%
%ADD54R,0.07799X0.07799*%
%ADD55C,0.07799*%
%ADD56R,0.07799X0.07799*%
%ADD57C,0.07386*%
%ADD58C,0.06598*%
%ADD59C,0.09748*%
%ADD60C,0.08173*%
G04:AMPARAMS|DCode=61|XSize=62.99mil|YSize=62.99mil|CornerRadius=9mil|HoleSize=0mil|Usage=FLASHONLY|Rotation=90.000|XOffset=0mil|YOffset=0mil|HoleType=Round|Shape=RoundedRectangle|*
%AMROUNDEDRECTD61*
21,1,0.06299,0.04500,0,0,90.0*
21,1,0.04500,0.06299,0,0,90.0*
1,1,0.01799,0.02250,0.02250*
1,1,0.01799,0.02250,-0.02250*
1,1,0.01799,-0.02250,-0.02250*
1,1,0.01799,-0.02250,0.02250*
%
%ADD61ROUNDEDRECTD61*%
%ADD62R,0.06598X0.06598*%
G04:AMPARAMS|DCode=63|XSize=162.99mil|YSize=67.99mil|CornerRadius=9.62mil|HoleSize=0mil|Usage=FLASHONLY|Rotation=90.000|XOffset=0mil|YOffset=0mil|HoleType=Round|Shape=RoundedRectangle|*
%AMROUNDEDRECTD63*
21,1,0.16299,0.04875,0,0,90.0*
21,1,0.14375,0.06799,0,0,90.0*
1,1,0.01924,0.02438,0.07187*
1,1,0.01924,0.02438,-0.07187*
1,1,0.01924,-0.02438,-0.07187*
1,1,0.01924,-0.02438,0.07187*
%
%ADD63ROUNDEDRECTD63*%
G04:AMPARAMS|DCode=64|XSize=62.99mil|YSize=152.99mil|CornerRadius=9mil|HoleSize=0mil|Usage=FLASHONLY|Rotation=90.000|XOffset=0mil|YOffset=0mil|HoleType=Round|Shape=RoundedRectangle|*
%AMROUNDEDRECTD64*
21,1,0.06299,0.13500,0,0,90.0*
21,1,0.04500,0.15299,0,0,90.0*
1,1,0.01799,0.06750,0.02250*
1,1,0.01799,0.06750,-0.02250*
1,1,0.01799,-0.06750,-0.02250*
1,1,0.01799,-0.06750,0.02250*
%
%ADD64ROUNDEDRECTD64*%
G04:AMPARAMS|DCode=65|XSize=152.99mil|YSize=62.99mil|CornerRadius=9mil|HoleSize=0mil|Usage=FLASHONLY|Rotation=90.000|XOffset=0mil|YOffset=0mil|HoleType=Round|Shape=RoundedRectangle|*
%AMROUNDEDRECTD65*
21,1,0.15299,0.04500,0,0,90.0*
21,1,0.13500,0.06299,0,0,90.0*
1,1,0.01799,0.02250,0.06750*
1,1,0.01799,0.02250,-0.06750*
1,1,0.01799,-0.02250,-0.06750*
1,1,0.01799,-0.02250,0.06750*
%
%ADD65ROUNDEDRECTD65*%
%ADD66R,0.06992X0.10535*%
%ADD67O,0.08799X0.06799*%
%ADD68C,0.02858*%
%ADD69C,0.23921*%
%ADD70C,0.05299*%
%ADD71C,0.05699*%
%ADD72C,0.02661*%
D45*
X658650Y373000D02*
D03*
X652350D02*
D03*
X658650Y353000D02*
D03*
X652350D02*
D03*
D54*
X541500Y178000D02*
D03*
D55*
X521815D02*
D03*
X531658D02*
D03*
X348500Y122815D02*
D03*
Y132658D02*
D03*
X684500Y352658D02*
D03*
Y362500D02*
D03*
X355500Y218291D02*
D03*
Y247791D02*
D03*
D56*
X348500Y142500D02*
D03*
X684500Y372342D02*
D03*
D57*
X609000Y221000D02*
D03*
X599000D02*
D03*
X579000D02*
D03*
X569000D02*
D03*
X559000D02*
D03*
D58*
X673126Y130020D02*
D03*
X693126Y160020D02*
D03*
X551158Y266000D02*
D03*
X596158D02*
D03*
D59*
X658126Y160020D02*
D03*
X655626Y130020D02*
D03*
X640606Y145020D02*
D03*
D60*
X681000Y177500D02*
D03*
D61*
X701669Y247880D02*
D03*
Y212305D02*
D03*
X687209Y247887D02*
D03*
Y212297D02*
D03*
D62*
X570843Y266000D02*
D03*
X615842D02*
D03*
D63*
X662000Y281500D02*
D03*
D64*
X673800Y300400D02*
D03*
D65*
X686600Y281500D02*
D03*
D66*
X606300Y382398D02*
D03*
Y344602D02*
D03*
D67*
X635828Y373342D02*
D03*
Y363500D02*
D03*
Y353658D02*
D03*
D68*
X507500Y142000D02*
D03*
X515000Y139000D02*
D03*
X500000Y143500D02*
D03*
X566500Y154000D02*
D03*
X529500Y228500D02*
D03*
X501500Y116000D02*
D03*
X507500Y117500D02*
D03*
X515000Y121000D02*
D03*
X407500Y132500D02*
D03*
X492500D02*
D03*
X447500D02*
D03*
X393000D02*
D03*
X535000Y216500D02*
D03*
X550500Y160500D02*
D03*
X550000Y102000D02*
D03*
X522000Y104000D02*
D03*
X502000D02*
D03*
X495000Y115500D02*
D03*
X473500D02*
D03*
X491500Y157099D02*
D03*
X480500Y157000D02*
D03*
X569500Y148500D02*
D03*
X407500Y157500D02*
D03*
X501000Y110000D02*
D03*
X412000D02*
D03*
X637500Y258500D02*
D03*
Y212500D02*
D03*
D69*
X598465Y176925D02*
D03*
X566929Y363500D02*
D03*
X334685Y98185D02*
D03*
X444921Y287161D02*
D03*
D70*
X325000Y275000D02*
D03*
X395000D02*
D03*
X325000Y262500D02*
D03*
Y250000D02*
D03*
Y237500D02*
D03*
Y225000D02*
D03*
Y212500D02*
D03*
Y200000D02*
D03*
X612500Y150000D02*
D03*
Y162500D02*
D03*
Y187500D02*
D03*
X337500Y175000D02*
D03*
X350000D02*
D03*
X362500D02*
D03*
X387500D02*
D03*
X475000D02*
D03*
X500000D02*
D03*
X412500D02*
D03*
X375000D02*
D03*
Y195000D02*
D03*
X362500Y200000D02*
D03*
X325000Y112500D02*
D03*
Y125000D02*
D03*
Y137500D02*
D03*
Y150000D02*
D03*
Y162500D02*
D03*
Y175000D02*
D03*
Y187500D02*
D03*
X700000Y85000D02*
D03*
X687500D02*
D03*
X675000D02*
D03*
X662500D02*
D03*
X650000D02*
D03*
X637500D02*
D03*
X625000D02*
D03*
X612500D02*
D03*
X600000D02*
D03*
X587500D02*
D03*
X575000D02*
D03*
X562500D02*
D03*
X550000D02*
D03*
X537500D02*
D03*
X525000D02*
D03*
X512500D02*
D03*
X500000D02*
D03*
X487500D02*
D03*
X475000D02*
D03*
X462500D02*
D03*
X450000D02*
D03*
X437500D02*
D03*
X425000D02*
D03*
X412500D02*
D03*
X400000D02*
D03*
X387500D02*
D03*
X375000D02*
D03*
X362500D02*
D03*
X350000D02*
D03*
X384803Y282303D02*
D03*
X372303D02*
D03*
X359803D02*
D03*
X347303D02*
D03*
X334803D02*
D03*
X612500Y197500D02*
D03*
X600000D02*
D03*
X568500Y186000D02*
D03*
X550000Y197500D02*
D03*
X537500D02*
D03*
X525000D02*
D03*
X512500D02*
D03*
X500000D02*
D03*
X487500D02*
D03*
X475000D02*
D03*
X462500D02*
D03*
X450000D02*
D03*
X437500D02*
D03*
X425000D02*
D03*
X395000Y212500D02*
D03*
X412500Y197500D02*
D03*
X397500Y200000D02*
D03*
X395119Y225394D02*
D03*
X395000Y237500D02*
D03*
Y250000D02*
D03*
Y262500D02*
D03*
X655000Y250000D02*
D03*
X663500D02*
D03*
X672500D02*
D03*
Y258500D02*
D03*
X663500D02*
D03*
X655000D02*
D03*
D71*
X485500Y270500D02*
D03*
Y278000D02*
D03*
X460000Y255000D02*
D03*
Y247500D02*
D03*
X485500Y247000D02*
D03*
Y254500D02*
D03*
X440000Y255000D02*
D03*
Y247500D02*
D03*
X422500D02*
D03*
Y255000D02*
D03*
D72*
X585500Y201500D02*
D03*
M02*
